<svg width="564.827" height="429.013" viewBox="0 0 423.62 321.76" xmlns="http://www.w3.org/2000/svg" xmlns:xlink="http://www.w3.org/1999/xlink" overflow="hidden"><defs><clipPath id="svg983186540802tikz_00002J"><path d="M0 0 10 0 10 9 0 9Z"/></clipPath><clipPath id="svg983186540802tikz_00002as"><path d="M233 53 407.871 53 407.871 228 233 228Z"/></clipPath><clipPath id="svg983186540802tikz_00002c"><path d="M0.9375 0.824219 174.828 0.824219 174.828 174.715 0.9375 174.715Z"/></clipPath><clipPath id="svg983186540802tikz_00002a"><path d="M0 0 175 0 175 175 0 175Z"/></clipPath><clipPath id="svg983186540802tikz_00002aq"><path d="M0 0 7 0 7 7 0 7Z"/></clipPath><clipPath id="svg983186540802tikz_00002au"><path d="M234 53 407.871 53 407.871 227 234 227Z"/></clipPath><clipPath id="svg983186540802tikz_00002av"><path d="M321 268 372 268 372 306.023 321 306.023Z"/></clipPath><clipPath id="svg983186540802tikz_00002aw"><path d="M347.555 284.016 355.957 284.016 355.957 292.582 347.555 292.582Z"/></clipPath><clipPath id="svg983186540802tikz_00002ar"><path d="M1 0.769531 6.30078 0.769531 6.30078 6.3125 1 6.3125Z"/></clipPath><clipPath id="svg983186540802tikz_00002e"><path d="M0.554688 0.015625 8.95703 0.015625 8.95703 8.58203 0.554688 8.58203Z"/></clipPath><clipPath id="svg983186540802tikz_00002d"><path d="M0 0 9 0 9 9 0 9Z"/></clipPath><clipPath id="svg983186540802tikz_00002an"><path d="M0 0 7 0 7 7 0 7Z"/></clipPath><clipPath id="svg983186540802tikz_00002ao"><path d="M0.925781 0.769531 6.30078 0.769531 6.30078 6.3125 0.925781 6.3125Z"/></clipPath><clipPath id="svg983186540802tikz_00002i"><path d="M0.554688 0.015625 8.95703 0.015625 8.95703 8.58203 0.554688 8.58203Z"/></clipPath><clipPath id="svg983186540802tikz_00002h"><path d="M0 0 9 0 9 9 0 9Z"/></clipPath><clipPath id="svg983186540802tikz_00002bj"><path d="M372.926 65.7695 378.301 65.7695 378.301 71.3125 372.926 71.3125Z"/></clipPath><clipPath id="svg983186540802tikz_00002az"><path d="M331.93 143.727 340.332 143.727 340.332 152.129 331.93 152.129Z"/></clipPath><clipPath id="svg983186540802tikz_00002k"><path d="M0.929688 0.726563 9.33203 0.726563 9.33203 9.12891 0.929688 9.12891Z"/></clipPath><clipPath id="svg983186540802tikz_00002j"><path d="M0 0 10 0 10 10 0 10Z"/></clipPath><clipPath id="svg983186540802tikz_00002al"><path d="M0 0 6 0 6 7 0 7Z"/></clipPath><clipPath id="svg983186540802tikz_00002am"><path d="M0.0703125 0.355469 5.44531 0.355469 5.44531 6.06641 0.0703125 6.06641Z"/></clipPath><clipPath id="svg983186540802tikz_00002n"><path d="M0.929688 0.726563 9.33203 0.726563 9.33203 9.12891 0.929688 9.12891Z"/></clipPath><clipPath id="svg983186540802tikz_00002m"><path d="M0 0 10 0 10 10 0 10Z"/></clipPath><clipPath id="svg983186540802tikz_00002ai"><path d="M0 0 6 0 6 7 0 7Z"/></clipPath><clipPath id="svg983186540802tikz_00002aC"><path d="M330.922 125.414 339.324 125.414 339.324 133.98 330.922 133.98Z"/></clipPath><clipPath id="svg983186540802tikz_00002p"><path d="M0.921875 0.414063 9.32422 0.414063 9.32422 8.98047 0.921875 8.98047Z"/></clipPath><clipPath id="svg983186540802tikz_00002o"><path d="M0 0 10 0 10 9 0 9Z"/></clipPath><clipPath id="svg983186540802tikz_00002aj"><path d="M0.0703125 0.355469 5.44531 0.355469 5.44531 6.06641 0.0703125 6.06641Z"/></clipPath><clipPath id="svg983186540802tikz_00002bg"><path d="M266.07 201.352 271.445 201.352 271.445 207.066 266.07 207.066Z"/></clipPath><clipPath id="svg983186540802tikz_00002s"><path d="M0.921875 0.414063 9.32422 0.414063 9.32422 8.98047 0.921875 8.98047Z"/></clipPath><clipPath id="svg983186540802tikz_00002r"><path d="M0 0 10 0 10 9 0 9Z"/></clipPath><clipPath id="svg983186540802tikz_00002bf"><path d="M222 48.9688 407.871 48.9688 407.871 240 222 240Z"/></clipPath><clipPath id="svg983186540802tikz_00002aF"><path d="M336.805 71.3125 375.613 71.3125 375.613 110.629 336.805 110.629Z"/></clipPath><clipPath id="svg983186540802tikz_00002u"><path d="M0.804688 0.3125 39.6133 0.3125 39.6133 39.6289 0.804688 39.6289Z"/></clipPath><clipPath id="svg983186540802tikz_00002t"><path d="M0 0 40 0 40 40 0 40Z"/></clipPath><clipPath id="svg983186540802tikz_00002ag"><path d="M0 0 9 0 9 10 0 10Z"/></clipPath><clipPath id="svg983186540802tikz_00002ah"><path d="M0.332031 0.6875 8.73047 0.6875 8.73047 9.25391 0.332031 9.25391Z"/></clipPath><clipPath id="svg983186540802tikz_00002x"><path d="M0.804688 0.3125 39.6133 0.3125 39.6133 39.6289 0.804688 39.6289Z"/></clipPath><clipPath id="svg983186540802tikz_00002w"><path d="M0 0 40 0 40 40 0 40Z"/></clipPath><clipPath id="svg983186540802tikz_00002ad"><path d="M0 0 9 0 9 10 0 10Z"/></clipPath><clipPath id="svg983186540802tikz_00002aI"><path d="M311.77 120.543 320.172 120.543 320.172 129.109 311.77 129.109Z"/></clipPath><clipPath id="svg983186540802tikz_00002z"><path d="M0.769531 0.542969 9.17188 0.542969 9.17188 9.10938 0.769531 9.10938Z"/></clipPath><clipPath id="svg983186540802tikz_00002y"><path d="M0 0 10 0 10 10 0 10Z"/></clipPath><clipPath id="svg983186540802tikz_00002ae"><path d="M0.332031 0.6875 8.73047 0.6875 8.73047 9.25391 0.332031 9.25391Z"/></clipPath><clipPath id="svg983186540802tikz_00002bc"><path d="M194.328 284.688 202.73 284.688 202.73 293.254 194.328 293.254Z"/></clipPath><clipPath id="svg983186540802tikz_00002C"><path d="M0.769531 0.542969 9.17188 0.542969 9.17188 9.10938 0.769531 9.10938Z"/></clipPath><clipPath id="svg983186540802tikz_00002B"><path d="M0 0 10 0 10 10 0 10Z"/></clipPath><clipPath id="svg983186540802tikz_00002bb"><path d="M168 269 219 269 219 306.023 168 306.023Z"/></clipPath><clipPath id="svg983186540802tikz_00002E"><path d="M0.421875 0.183594 27 0.183594 27 25.5859 0.421875 25.5859Z"/></clipPath><clipPath id="svg983186540802tikz_00002F"><path d="M0.421875 0.183594 27.1016 0.183594 27.1016 25.5859 0.421875 25.5859Z"/></clipPath><clipPath id="svg983186540802tikz_00002D"><path d="M0 0 28 0 28 26 0 26Z"/></clipPath><clipPath id="svg983186540802tikz_00002ab"><path d="M0 0 10 0 10 9 0 9Z"/></clipPath><clipPath id="svg983186540802tikz_00002aM"><path d="M312.609 140.199 321.012 140.199 321.012 148.766 312.609 148.766Z"/></clipPath><clipPath id="svg983186540802tikz_00002H"><path d="M0.609375 0.199219 9.01172 0.199219 9.01172 8.76562 0.609375 8.76562Z"/></clipPath><clipPath id="svg983186540802tikz_00002G"><path d="M0 0 10 0 10 9 0 9Z"/></clipPath><clipPath id="svg983186540802tikz_00002ac"><path d="M0.605469 0.261719 9 0.261719 9 8.82812 0.605469 8.82812Z"/></clipPath><clipPath id="svg983186540802tikz_00002Y"><path d="M0 0 10 0 10 9 0 9Z"/></clipPath><clipPath id="svg983186540802tikz_00002K"><path d="M0.609375 0.199219 9 0.199219 9 8.76562 0.609375 8.76562Z"/></clipPath><clipPath id="svg983186540802tikz_00002b"><path d="M1 1 174.828 1 174.828 174.715 1 174.715Z"/></clipPath><clipPath id="svg983186540802tikz_00002Z"><path d="M0.605469 0.261719 9.00391 0.261719 9.00391 8.82812 0.605469 8.82812Z"/></clipPath><clipPath id="svg983186540802tikz_00002aP"><path d="M15.7344 48.9688 202 48.9688 202 235 15.7344 235Z"/></clipPath><clipPath id="svg983186540802tikz_00002M"><path d="M1 0.121094 17.793 0.121094 17.793 17 1 17Z"/></clipPath><clipPath id="svg983186540802tikz_00002N"><path d="M0.65625 0.121094 17.793 0.121094 17.793 17.2578 0.65625 17.2578Z"/></clipPath><clipPath id="svg983186540802tikz_00002L"><path d="M0 0 18 0 18 18 0 18Z"/></clipPath><clipPath id="svg983186540802tikz_00002aY"><path d="M103.605 127.262 112.004 127.262 112.004 135.828 103.605 135.828Z"/></clipPath><clipPath id="svg983186540802tikz_00002aR"><path d="M40.7695 70.9766 46.1445 70.9766 46.1445 76.6914 40.7695 76.6914Z"/></clipPath><clipPath id="svg983186540802tikz_00002P"><path d="M0.769531 0.976563 6.14453 0.976563 6.14453 6.69141 0.769531 6.69141Z"/></clipPath><clipPath id="svg983186540802tikz_00002O"><path d="M0 0 7 0 7 7 0 7Z"/></clipPath><clipPath id="svg983186540802tikz_00002W"><path d="M0 0 7 0 7 7 0 7Z"/></clipPath><clipPath id="svg983186540802tikz_00002X"><path d="M0.769531 0.542969 6.14453 0.542969 6.14453 6.25391 0.769531 6.25391Z"/></clipPath><clipPath id="svg983186540802tikz_00002S"><path d="M0.769531 1 6.14453 1 6.14453 6.69141 0.769531 6.69141Z"/></clipPath><clipPath id="svg983186540802tikz_00002R"><path d="M0 0 7 0 7 7 0 7Z"/></clipPath><clipPath id="svg983186540802tikz_00002T"><path d="M0 0 7 0 7 7 0 7Z"/></clipPath><clipPath id="svg983186540802tikz_00002aU"><path d="M20 273 61 273 61 306.023 20 306.023Z"/></clipPath><clipPath id="svg983186540802tikz_00002aV"><path d="M40.7695 287.543 46.1445 287.543 46.1445 293.254 40.7695 293.254Z"/></clipPath><clipPath id="svg983186540802tikz_00002U"><path d="M0.769531 0.542969 6.14453 0.542969 6.14453 6.25391 0.769531 6.25391Z"/></clipPath><mask id="svg983186540802tikz_00002ay"><g filter="url(#svg983186540802tikz_00002f)"><use width="100%" height="100%" xlink:href="#svg983186540802tikz_00002g"></use></g></mask><mask id="svg983186540802tikz_00002aE"><g filter="url(#svg983186540802tikz_00002f)"><use width="100%" height="100%" xlink:href="#svg983186540802tikz_00002q"></use></g></mask><mask id="svg983186540802tikz_00002aB"><g filter="url(#svg983186540802tikz_00002f)"><use width="100%" height="100%" xlink:href="#svg983186540802tikz_00002l"></use></g></mask><mask id="svg983186540802tikz_00002be"><g filter="url(#svg983186540802tikz_00002f)"><use width="100%" height="100%" xlink:href="#svg983186540802tikz_00002af"></use></g></mask><mask id="svg983186540802tikz_00002aK"><g filter="url(#svg983186540802tikz_00002f)"><use width="100%" height="100%" xlink:href="#svg983186540802tikz_00002A"></use></g></mask><mask id="svg983186540802tikz_00002ba"><g filter="url(#svg983186540802tikz_00002f)"><use width="100%" height="100%" xlink:href="#svg983186540802tikz_00002aa"></use></g></mask><mask id="svg983186540802tikz_00002bi"><g filter="url(#svg983186540802tikz_00002f)"><use width="100%" height="100%" xlink:href="#svg983186540802tikz_00002ak"></use></g></mask><mask id="svg983186540802tikz_00002aO"><g filter="url(#svg983186540802tikz_00002f)"><use width="100%" height="100%" xlink:href="#svg983186540802tikz_00002I"></use></g></mask><mask id="svg983186540802tikz_00002aT"><g filter="url(#svg983186540802tikz_00002f)"><use width="100%" height="100%" xlink:href="#svg983186540802tikz_00002Q"></use></g></mask><mask id="svg983186540802tikz_00002bl"><g filter="url(#svg983186540802tikz_00002f)"><use width="100%" height="100%" xlink:href="#svg983186540802tikz_00002ap"></use></g></mask><mask id="svg983186540802tikz_00002aX"><g filter="url(#svg983186540802tikz_00002f)"><use width="100%" height="100%" xlink:href="#svg983186540802tikz_00002V"></use></g></mask><mask id="svg983186540802tikz_00002aH"><g filter="url(#svg983186540802tikz_00002f)"><use width="100%" height="100%" xlink:href="#svg983186540802tikz_00002v"></use></g></mask><filter id="svg983186540802tikz_00002f" x="0%" y="0%" width="100%" height="100%" filterUnits="objectBoundingBox" primitiveUnits="userSpaceOnUse"><feColorMatrix in="SourceGraphic" type="matrix" values="0 0 0 0 1 0 0 0 0 1 0 0 0 0 1 0 0 0 1 0 "/></filter><g clip-path="url(#svg983186540802tikz_00002R)"><g id="svg983186540802tikz_00002aS" clip-path="url(#svg983186540802tikz_00002S)"><path d="M5.55078 5.68359C5.0625 6.28516 4.25781 6.58984 3.48047 6.52344 2.71094 6.45312 1.98828 6.01953 1.5 5.42969 0.308594 4.00391 0.746094 0.894531 3.04688 1.01172 5.0625 1.12891 6.94531 3.93359 5.55078 5.68359Z" fill="#FFFFFF"/></g></g><g clip-path="url(#svg983186540802tikz_00002aq)"><g id="svg983186540802tikz_00002bk" clip-path="url(#svg983186540802tikz_00002ar)"><path d="M5.72266 5.45703C5.23438 6.0625 4.42969 6.36328 3.65625 6.29688 2.88281 6.23047 2.16016 5.79297 1.67188 5.20312 0.480469 3.77734 0.917969 0.667969 3.21875 0.785156 5.23438 0.886719 7.13281 3.69141 5.72266 5.45703Z" fill="#FFFFFF"/></g></g><g id="svg983186540802tikz_00002at" clip-path="url(#svg983186540802tikz_00002a)"><g clip-path="url(#svg983186540802tikz_00002b)"><path d="M174.41 87.7695C174.41 135.555 135.672 174.293 87.8828 174.293 40.0977 174.293 1.35938 135.555 1.35938 87.7695 1.35938 39.9844 40.0977 1.24219 87.8828 1.24219 135.672 1.24219 174.41 39.9844 174.41 87.7695Z" fill="#D9FFFF"/></g><g clip-path="url(#svg983186540802tikz_00002c)"><path d="M4074.1 1809.9C4074.1 1332.05 3686.72 944.67 3208.83 944.67 2730.98 944.67 2343.59 1332.05 2343.59 1809.9 2343.59 2287.76 2730.98 2675.18 3208.83 2675.18 3686.72 2675.18 4074.1 2287.76 4074.1 1809.9Z" stroke="#000000" stroke-width="8.4" stroke-miterlimit="10" fill="none" transform="matrix(0.1 0 0 -0.1 -233 268.76)"/></g></g><g clip-path="url(#svg983186540802tikz_00002an)"><g id="svg983186540802tikz_00002ap" clip-path="url(#svg983186540802tikz_00002ao)"><path d="M0.925781 6.3125 6.30078 6.3125 6.30078 0.769531 0.925781 0.769531Z" fill-opacity="0.502"/></g></g><g clip-path="url(#svg983186540802tikz_00002O)"><g id="svg983186540802tikz_00002Q" clip-path="url(#svg983186540802tikz_00002P)"><path d="M0.769531 6.69141 6.14453 6.69141 6.14453 0.976563 0.769531 0.976563Z" fill-opacity="0.502"/></g></g><g clip-path="url(#svg983186540802tikz_00002W)"><g id="svg983186540802tikz_00002aW" clip-path="url(#svg983186540802tikz_00002X)"><path d="M5.55078 5.33203C5.0625 5.9375 4.25781 6.23828 3.48047 6.17188 2.71094 6.10547 1.98828 5.66797 1.5 5.07812 0.308594 3.65234 0.746094 0.542969 3.04688 0.660156 5.0625 0.761719 6.94531 3.56641 5.55078 5.33203Z" fill="#FFFFFF"/></g></g><g id="svg983186540802tikz_00002aQ" clip-path="url(#svg983186540802tikz_00002L)"><g clip-path="url(#svg983186540802tikz_00002M)"><path d="M17.3711 8.69141C17.3711 13.1914 13.7227 16.8398 9.22266 16.8398 4.72266 16.8398 1.07422 13.1914 1.07422 8.69141 1.07422 4.19141 4.72266 0.542969 9.22266 0.542969 13.7227 0.542969 17.3711 4.19141 17.3711 8.69141Z" fill="#64A6DF"/></g><g clip-path="url(#svg983186540802tikz_00002N)"><path d="M483.711 2450.69C483.711 2405.69 447.227 2369.2 402.227 2369.2 357.227 2369.2 320.742 2405.69 320.742 2450.69 320.742 2495.69 357.227 2532.17 402.227 2532.17 447.227 2532.17 483.711 2495.69 483.711 2450.69Z" stroke="#000000" stroke-width="8.4" stroke-miterlimit="10" fill="none" transform="matrix(0.1 0 0 -0.1 -31 253.76)"/></g></g><g clip-path="url(#svg983186540802tikz_00002J)"><g id="svg983186540802tikz_00002aN" clip-path="url(#svg983186540802tikz_00002K)"><path d="M8.19531 7.39062C7.42188 8.29688 6.12891 8.76562 4.90234 8.64844 3.67578 8.54688 2.53125 7.91016 1.74219 7.00391-0.136719 4.85156 0.550781 0.164063 4.19531 0.347656 7.42188 0.5 10.4141 4.73438 8.19531 7.39062Z" fill="#FFFFFF"/></g></g><g clip-path="url(#svg983186540802tikz_00002d)"><g id="svg983186540802tikz_00002g" clip-path="url(#svg983186540802tikz_00002e)"><path d="M0.554688 8.58203 8.95703 8.58203 8.95703 0.015625 0.554688 0.015625Z" fill-opacity="0.502"/></g></g><g clip-path="url(#svg983186540802tikz_00002Y)"><g id="svg983186540802tikz_00002aa" clip-path="url(#svg983186540802tikz_00002Z)"><path d="M0.605469 8.82812 9.00391 8.82812 9.00391 0.261719 0.605469 0.261719Z" fill-opacity="0.502"/></g></g><g clip-path="url(#svg983186540802tikz_00002h)"><g id="svg983186540802tikz_00002ax" clip-path="url(#svg983186540802tikz_00002i)"><path d="M8.15625 7.1875C7.38672 8.09766 6.08984 8.56641 4.86328 8.44922 3.64062 8.33203 2.49609 7.71094 1.70703 6.80078-0.175781 4.65234 0.515625-0.0351563 4.16016 0.148438 7.40234 0.300781 10.3945 4.53516 8.15625 7.1875Z" fill="#FFFFFF"/></g></g><g clip-path="url(#svg983186540802tikz_00002G)"><g id="svg983186540802tikz_00002I" clip-path="url(#svg983186540802tikz_00002H)"><path d="M0.609375 8.76562 9.01172 8.76562 9.01172 0.199219 0.609375 0.199219Z" fill-opacity="0.502"/></g></g><g id="svg983186540802tikz_00002aL" clip-path="url(#svg983186540802tikz_00002D)"><g clip-path="url(#svg983186540802tikz_00002E)"><path d="M26.6836 12.8828C26.6836 6.10156 20.8984 0.601563 13.7617 0.601563 6.625 0.601563 0.839844 6.10156 0.839844 12.8828 0.839844 19.668 6.625 25.1641 13.7617 25.1641 20.8984 25.1641 26.6836 19.668 26.6836 12.8828Z" fill="#FA51F9"/></g><g clip-path="url(#svg983186540802tikz_00002F)"><path d="M3246.84 1728.77C3246.84 1796.58 3188.98 1851.58 3117.62 1851.58 3046.25 1851.58 2988.4 1796.58 2988.4 1728.77 2988.4 1660.92 3046.25 1605.96 3117.62 1605.96 3188.98 1605.96 3246.84 1660.92 3246.84 1728.77Z" stroke="#000000" stroke-width="8.4" stroke-miterlimit="10" fill="none" transform="matrix(0.1 0 0 -0.1 -298 185.76)"/></g></g><g clip-path="url(#svg983186540802tikz_00002ab)"><g id="svg983186540802tikz_00002aZ" clip-path="url(#svg983186540802tikz_00002ac)"><path d="M8.15625 7.41797C7.38672 8.32422 6.08984 8.79688 4.86328 8.67969 3.63672 8.57812 2.49609 7.9375 1.70703 7.03125-0.175781 4.88281 0.511719 0.195313 4.15625 0.378906 7.38672 0.53125 10.375 4.76562 8.15625 7.41797Z" fill="#FFFFFF"/></g></g><g clip-path="url(#svg983186540802tikz_00002B)"><g id="svg983186540802tikz_00002aJ" clip-path="url(#svg983186540802tikz_00002C)"><path d="M8.23828 7.73047C7.46484 8.64062 6.17188 9.10938 4.94531 8.99219 3.71875 8.89062 2.57422 8.25391 1.78516 7.34766-0.09375 5.19531 0.59375 0.507813 4.23828 0.691406 7.46484 0.84375 10.4531 5.07812 8.23828 7.73047Z" fill="#FFFFFF"/></g></g><g clip-path="url(#svg983186540802tikz_00002al)"><g id="svg983186540802tikz_00002bh" clip-path="url(#svg983186540802tikz_00002am)"><path d="M4.81641 5.19141C4.32812 5.79688 3.52344 6.09766 2.75 6.03125 1.97656 5.96484 1.25391 5.52734 0.769531 4.94141-0.425781 3.51172 0.0117188 0.40625 2.3125 0.523438 4.32812 0.640625 6.21094 3.44531 4.81641 5.19141Z" fill="#FFFFFF"/></g></g><g clip-path="url(#svg983186540802tikz_00002y)"><g id="svg983186540802tikz_00002A" clip-path="url(#svg983186540802tikz_00002z)"><path d="M0.769531 9.10938 9.17188 9.10938 9.17188 0.542969 0.769531 0.542969Z" fill-opacity="0.502"/></g></g><g clip-path="url(#svg983186540802tikz_00002w)"><g id="svg983186540802tikz_00002aG" clip-path="url(#svg983186540802tikz_00002x)"><path d="M35.9922 33.5977C32.3789 37.8984 26.3008 40.0469 20.5352 39.543 14.7734 39.0391 9.39453 36.0312 5.68359 31.8008-3.1875 21.6523 0.0546875-0.375 17.1914 0.480469 32.3789 1.22266 46.4609 21.1484 35.9922 33.5977Z" fill="#FFFFFF"/></g></g><g clip-path="url(#svg983186540802tikz_00002ad)"><g id="svg983186540802tikz_00002af" clip-path="url(#svg983186540802tikz_00002ae)"><path d="M0.328125 9.25391 8.73047 9.25391 8.73047 0.6875 0.328125 0.6875Z" fill-opacity="0.502"/></g></g><g clip-path="url(#svg983186540802tikz_00002j)"><g id="svg983186540802tikz_00002l" clip-path="url(#svg983186540802tikz_00002k)"><path d="M0.929688 9.12891 9.33203 9.12891 9.33203 0.726563 0.929688 0.726563Z" fill-opacity="0.502"/></g></g><g clip-path="url(#svg983186540802tikz_00002T)"><g id="svg983186540802tikz_00002V" clip-path="url(#svg983186540802tikz_00002U)"><path d="M0.769531 6.25391 6.14453 6.25391 6.14453 0.542969 0.769531 0.542969Z" fill-opacity="0.502"/></g></g><g clip-path="url(#svg983186540802tikz_00002t)"><g id="svg983186540802tikz_00002v" clip-path="url(#svg983186540802tikz_00002u)"><path d="M0.804688 39.6289 39.6133 39.6289 39.6133 0.3125 0.804688 0.3125Z" fill-opacity="0.502"/></g></g><g clip-path="url(#svg983186540802tikz_00002ag)"><g id="svg983186540802tikz_00002bd" clip-path="url(#svg983186540802tikz_00002ah)"><path d="M7.91406 7.82812C7.14453 8.73438 5.85156 9.20312 4.62109 9.08594 3.39844 8.98438 2.25391 8.34766 1.46484 7.44141-0.417969 5.28906 0.269531 0.601563 3.91797 0.789063 7.14453 0.9375 10.1328 5.17188 7.91406 7.82812Z" fill="#FFFFFF"/></g></g><g clip-path="url(#svg983186540802tikz_00002r)"><g id="svg983186540802tikz_00002aD" clip-path="url(#svg983186540802tikz_00002s)"><path d="M8.39062 7.60547C7.61719 8.51172 6.32422 8.98047 5.09766 8.86328 3.87109 8.76172 2.73047 8.125 1.9375 7.21875 0.0585938 5.06641 0.746094 0.378906 4.39062 0.5625 7.63672 0.714844 10.625 4.94922 8.39062 7.60547Z" fill="#FFFFFF"/></g></g><g clip-path="url(#svg983186540802tikz_00002ai)"><g id="svg983186540802tikz_00002ak" clip-path="url(#svg983186540802tikz_00002aj)"><path d="M0.0703125 6.06641 5.44531 6.06641 5.44531 0.351563 0.0703125 0.351563Z" fill-opacity="0.502"/></g></g><g clip-path="url(#svg983186540802tikz_00002o)"><g id="svg983186540802tikz_00002q" clip-path="url(#svg983186540802tikz_00002p)"><path d="M0.921875 8.98047 9.32422 8.98047 9.32422 0.414063 0.921875 0.414063Z" fill-opacity="0.502"/></g></g><g clip-path="url(#svg983186540802tikz_00002m)"><g id="svg983186540802tikz_00002aA" clip-path="url(#svg983186540802tikz_00002n)"><path d="M8.41406 7.81641C7.64453 8.72266 6.34766 9.19531 5.12109 9.07422 3.89453 8.97656 2.75391 8.33594 1.96484 7.42969 0.0820313 5.28125 0.769531 0.59375 4.41797 0.777344 7.64453 0.929688 10.6328 5.16016 8.41406 7.81641Z" fill="#FFFFFF"/></g></g></defs><g clip-path="url(#svg983186540802tikz_00002as)"><use width="100%" height="100%" xlink:href="#svg983186540802tikz_00002at" transform="translate(233 53)"></use></g><g clip-path="url(#svg983186540802tikz_00002au)"><path d="M320.883 53.7578C273.102 53.7578 234.359 92.5 234.359 140.281 234.359 188.062 273.102 226.809 320.883 226.809 368.664 226.809 407.41 188.062 407.41 140.281 407.41 92.5 368.684 53.7578 320.883 53.7578ZM327.016 213.82C284.191 213.82 249.48 179.109 249.48 136.281 249.48 93.457 284.191 58.7461 327.016 58.7461 369.844 58.7461 404.555 93.4414 404.555 136.266 404.555 179.094 369.844 213.82 327.016 213.82Z" fill="#BDF9E5"/></g><path d="M359.645 292.684C359.645 285.902 353.859 280.402 346.723 280.402 339.59 280.402 333.805 285.902 333.805 292.684 333.805 299.469 339.59 304.965 346.723 304.965 353.859 304.965 359.645 299.469 359.645 292.684Z" fill="#2A8641"/><path d="M346.723 280.402C353.863 280.402 359.645 285.895 359.645 292.684 359.645 299.473 353.863 304.965 346.723 304.965 339.586 304.965 333.805 299.473 333.805 292.684 333.805 285.895 339.602 280.402 346.723 280.402ZM359.074 291.727C359.074 285.777 354 280.957 347.746 280.957 341.5 280.957 336.426 285.777 336.426 291.727 336.426 297.676 341.5 302.496 347.746 302.496 354 302.496 359.074 297.676 359.074 291.727Z" fill="#287037"/><path d="M359.074 291.727C359.074 285.777 354.004 280.957 347.746 280.957 341.496 280.957 336.426 285.777 336.426 291.727 336.426 297.676 341.496 302.496 347.746 302.496 354.004 302.496 359.074 297.676 359.074 291.727Z" fill="#2A8641"/><g clip-path="url(#svg983186540802tikz_00002av)"><path d="M3596.45 290.764C3596.45 358.577 3538.59 413.577 3467.23 413.577 3395.9 413.577 3338.05 358.577 3338.05 290.764 3338.05 222.913 3395.9 167.952 3467.23 167.952 3538.59 167.952 3596.45 222.913 3596.45 290.764Z" stroke="#000000" stroke-width="8.4" stroke-miterlimit="10" fill="none" transform="matrix(0.1 0 0 -0.1 0 321.76)"/></g><g clip-path="url(#svg983186540802tikz_00002aw)"><use width="100%" height="100%" xlink:href="#svg983186540802tikz_00002ax" mask="url(#svg983186540802tikz_00002ay)" transform="translate(347 284)"></use></g><path d="M343.902 152.312C343.902 145.527 338.117 140.031 330.98 140.031 323.848 140.031 318.062 145.527 318.062 152.312 318.062 159.094 323.848 164.594 330.98 164.594 338.117 164.594 343.902 159.094 343.902 152.312Z" fill="#2A8641"/><path d="M330.98 140.031C338.121 140.031 343.902 145.523 343.902 152.312 343.902 159.098 338.121 164.594 330.98 164.594 323.84 164.594 318.062 159.098 318.062 152.312 318.062 145.539 323.84 140.031 330.98 140.031ZM343.312 151.355C343.312 145.406 338.238 140.586 331.988 140.586 325.738 140.586 320.664 145.406 320.664 151.355 320.664 157.301 325.738 162.121 331.988 162.121 338.238 162.121 343.312 157.301 343.312 151.355Z" fill="#287037"/><path d="M343.312 151.355C343.312 145.406 338.242 140.586 331.988 140.586 325.734 140.586 320.664 145.406 320.664 151.355 320.664 157.301 325.734 162.121 331.988 162.121 338.242 162.121 343.312 157.301 343.312 151.355Z" fill="#2A8641"/><path d="M3439.02 1694.47C3439.02 1762.33 3381.17 1817.29 3309.8 1817.29 3238.48 1817.29 3180.62 1762.33 3180.62 1694.47 3180.62 1626.66 3238.48 1571.66 3309.8 1571.66 3381.17 1571.66 3439.02 1626.66 3439.02 1694.47Z" stroke="#000000" stroke-width="8.4" stroke-miterlimit="10" fill="none" transform="matrix(0.1 0 0 -0.1 0 321.76)"/><g clip-path="url(#svg983186540802tikz_00002az)"><use width="100%" height="100%" xlink:href="#svg983186540802tikz_00002aA" mask="url(#svg983186540802tikz_00002aB)" transform="translate(331 143)"></use></g><path d="M3428.75 1876.62C3428.75 1944.44 3370.94 1999.44 3299.57 1999.44 3228.2 1999.44 3170.35 1944.44 3170.35 1876.62 3170.35 1808.77 3228.2 1753.77 3299.57 1753.77 3370.94 1753.77 3428.75 1808.77 3428.75 1876.62Z" stroke="#000000" stroke-width="8.4" stroke-miterlimit="10" fill="none" transform="matrix(0.1 0 0 -0.1 0 321.76)"/><path d="M342.875 134.098C342.875 127.316 337.094 121.816 329.957 121.816 322.82 121.816 317.035 127.316 317.035 134.098 317.035 140.883 322.82 146.383 329.957 146.383 337.094 146.383 342.875 140.883 342.875 134.098Z" fill="#FA51F9"/><path d="M329.957 121.816C337.098 121.816 342.875 127.312 342.875 134.098 342.875 140.887 337.098 146.383 329.957 146.383 322.816 146.383 317.035 140.887 317.035 134.098 317.035 127.312 322.836 121.816 329.957 121.816ZM342.305 133.141C342.305 127.195 337.23 122.371 330.98 122.371 324.73 122.371 319.656 127.195 319.656 133.141 319.656 139.09 324.73 143.91 330.98 143.91 337.23 143.91 342.305 139.09 342.305 133.141Z" fill="#CB4DCE"/><path d="M342.305 133.141C342.305 127.195 337.234 122.371 330.98 122.371 324.727 122.371 319.656 127.195 319.656 133.141 319.656 139.09 324.727 143.91 330.98 143.91 337.234 143.91 342.305 139.09 342.305 133.141Z" fill="#FA51F9"/><path d="M3428.75 1876.62C3428.75 1944.44 3370.94 1999.44 3299.57 1999.44 3228.2 1999.44 3170.35 1944.44 3170.35 1876.62 3170.35 1808.77 3228.2 1753.77 3299.57 1753.77 3370.94 1753.77 3428.75 1808.77 3428.75 1876.62Z" stroke="#000000" stroke-width="8.4" stroke-miterlimit="10" fill="none" transform="matrix(0.1 0 0 -0.1 0 321.76)"/><g clip-path="url(#svg983186540802tikz_00002aC)"><use width="100%" height="100%" xlink:href="#svg983186540802tikz_00002aD" mask="url(#svg983186540802tikz_00002aE)" transform="translate(330 125)"></use></g><g clip-path="url(#svg983186540802tikz_00002aF)"><use width="100%" height="100%" xlink:href="#svg983186540802tikz_00002aG" mask="url(#svg983186540802tikz_00002aH)" transform="translate(336 71)"></use></g><path d="M323.723 129.227C323.723 122.445 317.938 116.945 310.805 116.945 303.668 116.945 297.883 122.445 297.883 129.227 297.883 136.012 303.668 141.508 310.805 141.508 317.938 141.508 323.723 136.012 323.723 129.227Z" fill="#2A8641"/><path d="M310.805 116.945C317.945 116.945 323.723 122.441 323.723 129.227 323.723 136.016 317.945 141.508 310.805 141.508 303.664 141.508 297.883 136.016 297.883 129.227 297.883 122.441 303.664 116.945 310.805 116.945ZM323.152 128.27C323.152 122.32 318.078 117.5 311.828 117.5 305.578 117.5 300.504 122.32 300.504 128.27 300.504 134.219 305.578 139.039 311.828 139.039 318.078 139.039 323.152 134.219 323.152 128.27Z" fill="#287037"/><path d="M323.137 128.27C323.137 122.32 318.066 117.5 311.812 117.5 305.559 117.5 300.488 122.32 300.488 128.27 300.488 134.219 305.559 139.039 311.812 139.039 318.066 139.039 323.137 134.219 323.137 128.27Z" fill="#2A8641"/><path d="M3237.23 1925.33C3237.23 1993.15 3179.38 2048.15 3108.05 2048.15 3036.68 2048.15 2978.83 1993.15 2978.83 1925.33 2978.83 1857.48 3036.68 1802.52 3108.05 1802.52 3179.38 1802.52 3237.23 1857.48 3237.23 1925.33Z" stroke="#000000" stroke-width="8.4" stroke-miterlimit="10" fill="none" transform="matrix(0.1 0 0 -0.1 0 321.76)"/><g clip-path="url(#svg983186540802tikz_00002aI)"><use width="100%" height="100%" xlink:href="#svg983186540802tikz_00002aJ" mask="url(#svg983186540802tikz_00002aK)" transform="translate(311 120)"></use></g><path d="M324.094 147.926C324.094 141.98 319.023 137.156 312.77 137.156 306.516 137.156 301.445 141.98 301.445 147.926 301.445 153.875 306.516 158.695 312.77 158.695 319.023 158.695 324.094 153.875 324.094 147.926Z" fill="#FA51F9"/><path d="M311.762 136.602C318.902 136.602 324.684 142.098 324.684 148.883 324.684 155.672 318.902 161.164 311.762 161.164 304.621 161.164 298.84 155.672 298.84 148.883 298.84 142.098 304.621 136.602 311.762 136.602ZM324.109 147.926C324.109 141.98 319.035 137.156 312.785 137.156 306.535 137.156 301.461 141.98 301.461 147.926 301.461 153.875 306.535 158.695 312.785 158.695 319.035 158.695 324.109 153.875 324.109 147.926Z" fill="#CB4DCE"/><use width="100%" height="100%" xlink:href="#svg983186540802tikz_00002aL" transform="translate(298 136)"></use><g clip-path="url(#svg983186540802tikz_00002aM)"><use width="100%" height="100%" xlink:href="#svg983186540802tikz_00002aN" mask="url(#svg983186540802tikz_00002aO)" transform="translate(312 140)"></use></g><g clip-path="url(#svg983186540802tikz_00002aP)"><path d="M1892.46 1858.46C1892.46 1380.61 1505.12 993.225 1027.23 993.225 549.375 993.225 161.992 1380.61 161.992 1858.46 161.992 2336.31 549.375 2723.69 1027.23 2723.69 1505.12 2723.69 1892.46 2336.31 1892.46 1858.46Z" stroke="#000000" stroke-width="8.4" stroke-miterlimit="10" fill="none" transform="matrix(0.1 0 0 -0.1 0 321.76)"/></g><use width="100%" height="100%" xlink:href="#svg983186540802tikz_00002aQ" transform="translate(31 68)"></use><path d="M48.0039 76.0508C48.0039 72.1016 44.8086 68.9102 40.8633 68.9102 36.9141 68.9102 33.7227 72.1016 33.7227 76.0508 33.7227 80 36.9141 83.1914 40.8633 83.1914 44.8086 83.1914 48.0039 80 48.0039 76.0508ZM40.2227 68.543C44.7266 68.543 48.3711 72.1875 48.3711 76.6914 48.3711 81.1914 44.7266 84.8398 40.2227 84.8398 35.7188 84.8398 32.0742 81.1758 32.0742 76.6914 32.0742 72.2031 35.7188 68.543 40.2227 68.543Z" fill="#4D84AD"/><path d="M48.0039 76.0508C48.0039 79.9961 44.8047 83.1914 40.8633 83.1914 36.918 83.1914 33.7227 79.9961 33.7227 76.0508 33.7227 72.1094 36.918 68.9102 40.8633 68.9102 44.8047 68.9102 48.0039 72.1094 48.0039 76.0508Z" fill="#64A6DF"/><path d="M483.711 2450.69C483.711 2405.69 447.227 2369.2 402.227 2369.2 357.227 2369.2 320.742 2405.69 320.742 2450.69 320.742 2495.69 357.227 2532.17 402.227 2532.17 447.227 2532.17 483.711 2495.69 483.711 2450.69Z" stroke="#000000" stroke-width="8.4" stroke-miterlimit="10" fill="none" transform="matrix(0.1 0 0 -0.1 0 321.76)"/><g clip-path="url(#svg983186540802tikz_00002aR)"><use width="100%" height="100%" xlink:href="#svg983186540802tikz_00002aS" mask="url(#svg983186540802tikz_00002aT)" transform="translate(40 70)"></use></g><path d="M48.3711 293.32C48.3711 297.824 44.7227 301.469 40.2227 301.469 35.7227 301.469 32.0742 297.824 32.0742 293.32 32.0742 288.82 35.7227 285.172 40.2227 285.172 44.7227 285.172 48.3711 288.82 48.3711 293.32Z" fill="#64A6DF"/><path d="M40.2227 285.172C44.7266 285.172 48.3711 288.82 48.3711 293.32 48.3711 297.824 44.7266 301.469 40.2227 301.469 35.7188 301.469 32.0742 297.824 32.0742 293.32 32.0742 288.82 35.7188 285.172 40.2227 285.172ZM48.0039 292.684C48.0039 288.734 44.8086 285.543 40.8633 285.543 36.9141 285.543 33.7227 288.734 33.7227 292.684 33.7227 296.633 36.9141 299.824 40.8633 299.824 44.8086 299.824 48.0039 296.633 48.0039 292.684Z" fill="#4D84AD"/><path d="M48.0039 292.684C48.0039 296.629 44.8047 299.824 40.8633 299.824 36.918 299.824 33.7227 296.629 33.7227 292.684 33.7227 288.742 36.918 285.543 40.8633 285.543 44.8047 285.543 48.0039 288.742 48.0039 292.684Z" fill="#64A6DF"/><g clip-path="url(#svg983186540802tikz_00002aU)"><path d="M483.711 284.397C483.711 239.358 447.227 202.913 402.227 202.913 357.227 202.913 320.742 239.358 320.742 284.397 320.742 329.397 357.227 365.881 402.227 365.881 447.227 365.881 483.711 329.397 483.711 284.397Z" stroke="#000000" stroke-width="8.4" stroke-miterlimit="10" fill="none" transform="matrix(0.1 0 0 -0.1 0 321.76)"/></g><g clip-path="url(#svg983186540802tikz_00002aV)"><use width="100%" height="100%" xlink:href="#svg983186540802tikz_00002aW" mask="url(#svg983186540802tikz_00002aX)" transform="translate(40 287)"></use></g><path d="M115.645 135.914C115.645 129.133 109.859 123.633 102.723 123.633 95.5898 123.633 89.8047 129.133 89.8047 135.914 89.8047 142.695 95.5898 148.195 102.723 148.195 109.859 148.195 115.645 142.695 115.645 135.914Z" fill="#FA51F9"/><path d="M102.723 123.633C109.863 123.633 115.645 129.129 115.645 135.914 115.645 142.699 109.863 148.195 102.723 148.195 95.582 148.195 89.8047 142.699 89.8047 135.914 89.8047 129.129 95.582 123.633 102.723 123.633ZM115.07 134.957C115.07 129.008 109.996 124.188 103.746 124.188 97.4961 124.188 92.4219 129.008 92.4219 134.957 92.4219 140.902 97.4961 145.727 103.746 145.727 109.996 145.727 115.07 140.902 115.07 134.957Z" fill="#CB4DCE"/><path d="M115.055 134.957C115.055 129.008 109.984 124.188 103.73 124.188 97.4766 124.188 92.4062 129.008 92.4062 134.957 92.4062 140.902 97.4766 145.727 103.73 145.727 109.984 145.727 115.055 140.902 115.055 134.957Z" fill="#FA51F9"/><path d="M1156.45 1858.46C1156.45 1926.27 1098.59 1981.27 1027.23 1981.27 955.898 1981.27 898.047 1926.27 898.047 1858.46 898.047 1790.65 955.898 1735.65 1027.23 1735.65 1098.59 1735.65 1156.45 1790.65 1156.45 1858.46Z" stroke="#000000" stroke-width="8.4" stroke-miterlimit="10" fill="none" transform="matrix(0.1 0 0 -0.1 0 321.76)"/><g clip-path="url(#svg983186540802tikz_00002aY)"><use width="100%" height="100%" xlink:href="#svg983186540802tikz_00002aZ" mask="url(#svg983186540802tikz_00002ba)" transform="translate(103 127)"></use></g><path d="M206.402 293.32C206.402 286.539 200.617 281.043 193.48 281.043 186.348 281.043 180.562 286.539 180.562 293.32 180.562 300.105 186.348 305.605 193.48 305.605 200.617 305.605 206.402 300.105 206.402 293.32Z" fill="#FA51F9"/><path d="M193.48 281.043C200.621 281.043 206.402 286.535 206.402 293.32 206.402 300.109 200.621 305.605 193.48 305.605 186.34 305.605 180.562 300.109 180.562 293.32 180.562 286.535 186.34 281.043 193.48 281.043ZM205.812 292.363C205.812 286.418 200.738 281.594 194.488 281.594 188.238 281.594 183.164 286.418 183.164 292.363 183.164 298.312 188.238 303.133 194.488 303.133 200.738 303.133 205.812 298.312 205.812 292.363Z" fill="#CB4DCE"/><path d="M205.812 292.363C205.812 286.418 200.746 281.594 194.488 281.594 188.234 281.594 183.164 286.418 183.164 292.363 183.164 298.312 188.234 303.133 194.488 303.133 200.746 303.133 205.812 298.312 205.812 292.363Z" fill="#FA51F9"/><g stroke="#000000" stroke-width="8.4" stroke-miterlimit="10" fill="none" clip-path="url(#svg983186540802tikz_00002bb)"><path d="M2064.02 284.397C2064.02 352.209 2006.17 407.17 1934.8 407.17 1863.48 407.17 1805.62 352.209 1805.62 284.397 1805.62 216.545 1863.48 161.545 1934.8 161.545 2006.17 161.545 2064.02 216.545 2064.02 284.397Z" transform="matrix(0.1 0 0 -0.1 0 321.76)"/><path d="M2064.02 284.397C2064.02 352.209 2006.17 407.17 1934.8 407.17 1863.48 407.17 1805.62 352.209 1805.62 284.397 1805.62 216.545 1863.48 161.545 1934.8 161.545 2006.17 161.545 2064.02 216.545 2064.02 284.397Z" transform="matrix(0.1 0 0 -0.1 0 321.76)"/></g><g clip-path="url(#svg983186540802tikz_00002bc)"><use width="100%" height="100%" xlink:href="#svg983186540802tikz_00002bd" mask="url(#svg983186540802tikz_00002be)" transform="translate(194 284)"></use></g><g clip-path="url(#svg983186540802tikz_00002bf)"><path d="M4074.1 1809.9C4074.1 1332.05 3686.72 944.67 3208.83 944.67 2730.98 944.67 2343.59 1332.05 2343.59 1809.9 2343.59 2287.76 2730.98 2675.18 3208.83 2675.18 3686.72 2675.18 4074.1 2287.76 4074.1 1809.9Z" stroke="#000000" stroke-width="8.4" stroke-miterlimit="10" fill="none" transform="matrix(0.1 0 0 -0.1 0 321.76)"/></g><path d="M2736.41 1145.61C2736.41 1100.61 2699.92 1064.12 2654.92 1064.12 2609.92 1064.12 2573.44 1100.61 2573.44 1145.61 2573.44 1190.61 2609.92 1227.09 2654.92 1227.09 2699.92 1227.09 2736.41 1190.61 2736.41 1145.61Z" stroke="#000000" stroke-width="8.4" stroke-miterlimit="10" fill="none" transform="matrix(0.1 0 0 -0.1 0 321.76)"/><path d="M265.492 199.051C269.992 199.051 273.641 202.699 273.641 207.199 273.641 211.703 269.992 215.348 265.492 215.348 260.988 215.348 257.344 211.703 257.344 207.199 257.344 202.699 261.008 199.051 265.492 199.051ZM273.285 206.562C273.285 202.613 270.094 199.422 266.145 199.422 262.199 199.422 259.008 202.613 259.008 206.562 259.008 210.512 262.199 213.703 266.145 213.703 270.094 213.703 273.285 210.492 273.285 206.562Z" fill="#64A6DF"/><path d="M265.492 199.051C269.992 199.051 273.641 202.699 273.641 207.199 273.641 211.703 269.992 215.348 265.492 215.348 260.988 215.348 257.344 211.703 257.344 207.199 257.344 202.699 261.008 199.051 265.492 199.051ZM273.285 206.562C273.285 202.613 270.094 199.422 266.145 199.422 262.199 199.422 259.008 202.613 259.008 206.562 259.008 210.512 262.199 213.703 266.145 213.703 270.094 213.703 273.285 210.492 273.285 206.562Z" fill="#4D84AD"/><path d="M273.27 206.562C273.27 210.508 270.074 213.703 266.129 213.703 262.188 213.703 258.988 210.508 258.988 206.562 258.988 202.617 262.188 199.422 266.129 199.422 270.074 199.422 273.27 202.617 273.27 206.562Z" fill="#64A6DF"/><path d="M2736.41 1145.61C2736.41 1100.61 2699.92 1064.12 2654.92 1064.12 2609.92 1064.12 2573.44 1100.61 2573.44 1145.61 2573.44 1190.61 2609.92 1227.09 2654.92 1227.09 2699.92 1227.09 2736.41 1190.61 2736.41 1145.61Z" stroke="#000000" stroke-width="8.4" stroke-miterlimit="10" fill="none" transform="matrix(0.1 0 0 -0.1 0 321.76)"/><g clip-path="url(#svg983186540802tikz_00002bg)"><use width="100%" height="100%" xlink:href="#svg983186540802tikz_00002bh" mask="url(#svg983186540802tikz_00002bi)" transform="translate(266 201)"></use></g><path d="M3805.62 2503.11C3805.62 2458.11 3769.14 2421.62 3724.14 2421.62 3679.14 2421.62 3642.66 2458.11 3642.66 2503.11 3642.66 2548.11 3679.14 2584.59 3724.14 2584.59 3769.14 2584.59 3805.62 2548.11 3805.62 2503.11Z" stroke="#000000" stroke-width="8.4" stroke-miterlimit="10" fill="none" transform="matrix(0.1 0 0 -0.1 0 321.76)"/><path d="M372.414 63.3008C376.914 63.3008 380.562 66.9453 380.562 71.4492 380.562 75.9492 376.914 79.5977 372.414 79.5977 367.91 79.5977 364.266 75.9492 364.266 71.4492 364.266 66.9453 367.91 63.3008 372.414 63.3008ZM380.191 70.8086C380.191 66.8633 377 63.668 373.051 63.668 369.102 63.668 365.91 66.8633 365.91 70.8086 365.91 74.7578 369.102 77.9492 373.051 77.9492 377 77.9492 380.191 74.7578 380.191 70.8086Z" fill="#64A6DF"/><path d="M372.414 63.3008C376.914 63.3008 380.562 66.9453 380.562 71.4492 380.562 75.9492 376.914 79.5977 372.414 79.5977 367.91 79.5977 364.266 75.9492 364.266 71.4492 364.266 66.9453 367.91 63.3008 372.414 63.3008ZM380.191 70.8086C380.191 66.8633 377 63.668 373.051 63.668 369.102 63.668 365.91 66.8633 365.91 70.8086 365.91 74.7578 369.102 77.9492 373.051 77.9492 377 77.9492 380.191 74.7578 380.191 70.8086Z" fill="#4D84AD"/><path d="M380.191 70.8086C380.191 74.7539 376.996 77.9492 373.051 77.9492 369.105 77.9492 365.91 74.7539 365.91 70.8086 365.91 66.8672 369.105 63.668 373.051 63.668 376.996 63.668 380.191 66.8672 380.191 70.8086Z" fill="#64A6DF"/><path d="M3805.62 2503.11C3805.62 2458.11 3769.14 2421.62 3724.14 2421.62 3679.14 2421.62 3642.66 2458.11 3642.66 2503.11 3642.66 2548.11 3679.14 2584.59 3724.14 2584.59 3769.14 2584.59 3805.62 2548.11 3805.62 2503.11Z" stroke="#000000" stroke-width="8.4" stroke-miterlimit="10" fill="none" transform="matrix(0.1 0 0 -0.1 0 321.76)"/><g clip-path="url(#svg983186540802tikz_00002bj)"><use width="100%" height="100%" xlink:href="#svg983186540802tikz_00002bk" mask="url(#svg983186540802tikz_00002bl)" transform="translate(372 65)"></use></g><path d="M134.051 23.7617C133.578 23.7617 133.254 23.6992 133.023 23.5742 132.789 23.4453 132.684 23.2734 132.684 23.0508 132.656 22.7773 132.746 22.6133 132.879 22.457 133.039 22.5781 133.277 22.7266 133.516 22.7969 133.75 22.8594 134.051 22.9062 134.406 22.9062 134.898 22.8906 135.41 22.8281 135.926 22.6758 135.801 22.3398 135.656 22.0039 135.461 21.6484L135.078 20.9492C134.938 20.7227 134.887 20.5859 134.84 20.4531 134.781 20.2852 134.773 20.1797 134.773 20.0391 134.746 19.6484 134.969 19.4297 135.363 19.2969 135.453 19.5898 135.598 19.8945 135.723 20.168 135.844 20.4414 135.969 20.7031 136.078 20.9414 136.164 21.1562 136.281 21.4062 136.352 21.6172 136.406 21.8047 136.465 22.0117 136.465 22.1836 136.441 22.2852 136.426 22.4531 136.359 22.6562 136.27 22.832 136.191 23.0859 136.07 23.3203 135.504 23.5938 134.852 23.7617 134.051 23.7617ZM135.469 17.9258C135.273 18.1562 135.055 18.4492 134.746 18.7422 134.398 18.4531 134.148 18.2383 133.945 18.0195 134.312 17.6133 134.59 17.3594 134.727 17.1953 134.953 17.4453 135.211 17.6992 135.469 17.9258ZM134.727 16.9258 134.727 16.9258M129.281 26.0469C129.078 26.0156 128.859 25.9766 128.551 25.8359 128.223 25.6719 127.996 25.5547 127.816 25.418L127.969 25.0469C128.355 25.1016 128.73 25.1719 129.027 25.1719 129.578 25.168 130.066 25.0039 130.465 24.6719 130.84 24.3359 131.164 23.8516 131.379 23.2148 131.254 22.9531 131.164 22.7383 131.039 22.5078 130.762 22.0391 130.586 21.6914 130.469 21.4141 130.324 21.1211 130.289 20.9102 130.289 20.7227 130.258 20.5117 130.348 20.3828 130.461 20.2695 130.555 20.1523 130.734 20.0469 130.941 19.9414 130.98 20.1172 131.07 20.375 131.164 20.625 131.238 20.8516 131.355 21.1289 131.449 21.3906 131.527 21.6406 131.625 21.9062 131.695 22.1602 131.73 22.4141 131.797 22.6445 131.797 22.8555 131.766 23.4062 131.688 23.9766 131.469 24.4727 131.227 24.9688 130.945 25.3594 130.559 25.6328 130.156 25.8828 129.75 26.0469 129.281 26.0469ZM129.316 26.5938 129.316 26.5938M125.188 19.7227C125.156 19.5859 125.215 19.4961 125.27 19.3945 125.305 19.2812 125.398 19.2266 125.488 19.1875 125.793 19.2969 126.148 19.5039 126.469 19.7812 126.766 20.0547 127.055 20.3867 127.273 20.7656 127.465 21.1406 127.598 21.4844 127.598 21.7891 127.566 22.0039 127.512 22.3164 127.336 22.7031 127.148 23.0742 126.996 23.3398 126.84 23.4453 126.512 23.6289 126.156 23.7617 125.734 23.7617 125.305 23.7617 124.98 23.6367 124.734 23.3906 124.473 23.1328 124.359 22.7969 124.359 22.3477 124.34 21.9688 124.449 21.6484 124.625 21.2969 124.793 20.9336 125.082 20.5859 125.465 20.2227 125.328 20.1328 125.273 20.0742 125.238 19.9883 125.191 19.8906 125.188 19.8125 125.188 19.7227ZM124.875 22.0195C124.852 22.2656 124.961 22.4922 125.133 22.6445 125.293 22.7656 125.543 22.8672 125.852 22.8672 126.035 22.8633 126.273 22.8125 126.508 22.7031 126.742 22.5781 126.926 22.4844 127.047 22.3711 126.879 21.6328 126.473 20.9961 125.781 20.4609 125.477 20.7227 125.285 20.9922 125.121 21.2734 124.949 21.5508 124.875 21.8047 124.875 22.0195ZM125.328 17.8633C125.184 18.0781 124.969 18.332 124.664 18.6289 124.309 18.3359 124.078 18.1328 123.922 17.9453 124.109 17.7344 124.359 17.5117 124.641 17.1914 124.715 17.2734 124.957 17.5078 125.328 17.8633ZM127.016 17.7031C126.871 17.9102 126.652 18.1836 126.344 18.4688 126.012 18.2148 125.781 17.9883 125.605 17.7812 125.684 17.6992 125.926 17.457 126.328 17.0273 126.406 17.0977 126.645 17.3477 127.016 17.7031ZM125.508 18.6289 125.508 18.6289M119.562 20.0312 119.562 20.7305C119.539 21.4297 119.535 22.4297 119.484 23.6641L118.969 23.7617C118.898 21.1406 118.82 18.9688 118.664 17.2422L118.66 17.0977C118.641 16.8477 118.719 16.6719 118.836 16.5312 118.941 16.3672 119.141 16.2969 119.398 16.2461 119.375 16.2656 119.418 16.3359 119.43 16.3789 119.43 16.4102 119.562 16.8164 119.797 17.5742L119.496 17.832 119.504 17.8867C119.539 18.6797 119.562 19.4023 119.562 20.0312ZM119.273 24.3398 119.273 24.3398M115.488 23.7617C115.395 23.7617 115.391 23.7305 115.391 23.6641L115.391 23C115.359 22.9258 115.422 22.9062 115.488 22.9062 115.91 22.8906 116.355 22.8086 116.73 22.6133 116.566 20.6094 116.391 18.7148 116.168 16.8672 116.359 16.6484 116.633 16.4414 116.918 16.2461 116.949 17.0195 117.012 18.1016 117.098 19.4102 117.133 20.4883 117.207 21.4531 117.219 22.25 117.211 22.3477 117.18 22.5469 117.105 22.7578 117.027 22.9336 116.938 23.1719 116.824 23.3711 116.68 23.6289 116.242 23.7617 115.488 23.7617ZM116.844 24.3398 116.844 24.3398"/><path d="M114.754 23.8359C114.91 23.8867 115.078 24.0273 115.199 24.1836 115.324 24.3281 115.383 24.4844 115.383 24.6289 115.355 24.7109 115.332 24.9219 115.23 25.1914 115.117 25.4492 115.051 25.6289 115.004 25.6953 114.906 25.7852 114.773 25.8828 114.598 25.9453 114.391 25.9844 114.242 26.0469 114.062 26.0469 113.461 26.0156 113.008 25.8711 112.641 25.5273 112.262 25.1602 112.043 24.6953 111.945 24.0625L111.516 24.2422 111.398 23.75 111.199 23.7617C111.137 23.7617 111.105 23.7305 111.105 23.6641L111.105 23C111.105 22.9258 111.137 22.9062 111.199 22.9062L111.715 22.8906 111.934 22.875C112.074 21.4805 112.785 20.1992 114.031 19.0234L114.434 19.1328C114.445 19.4453 114.523 19.9102 114.629 20.4492 114.715 20.9258 114.773 21.3125 114.773 21.5234 114.746 21.8281 114.68 22.1406 114.496 22.3984 114.277 22.6406 114.098 22.8516 113.859 22.9883L114.105 22.9648C114.496 22.9258 114.973 22.9062 115.531 22.9062 115.605 22.8906 115.656 22.9453 115.656 23.0195L115.656 23.6406C115.637 23.6953 115.617 23.7617 115.531 23.7617 115.234 23.7617 114.988 23.7852 114.754 23.8359ZM114.129 22.2539 114.031 21.6914C113.879 20.9727 113.809 20.4648 113.781 20.1445 113.344 20.6992 113.078 21.2305 112.91 21.6523 112.734 22.0469 112.641 22.4961 112.609 22.918 112.875 22.8672 113.145 22.8164 113.406 22.6992 113.668 22.5703 113.91 22.4336 114.129 22.2539ZM114.152 25.2578C114.262 25.2266 114.414 25.2305 114.559 25.1797 114.68 25.1211 114.812 25.0547 114.898 24.9648 114.77 24.6367 114.582 24.3555 114.234 24.1172 113.879 23.8594 113.516 23.7617 113.113 23.7617 113.047 23.7617 112.906 23.7812 112.676 23.8242 112.77 24.2852 112.98 24.6641 113.234 24.9023 113.477 25.125 113.797 25.2578 114.152 25.2578ZM114.039 26.5938 114.039 26.5938"/><path d="M110.191 21.2109C110.262 21.1953 110.387 21.2422 110.465 21.3008 110.309 21.6094 110.211 21.8945 110.109 22.1133 110.004 22.3125 109.945 22.4531 109.922 22.4805 110.168 22.6328 110.41 22.7539 110.629 22.8164 110.836 22.8594 111.078 22.9062 111.336 22.9062 111.387 22.8906 111.43 22.9375 111.43 23L111.43 23.6641C111.418 23.7266 111.398 23.7617 111.336 23.7617 110.633 23.7617 110.055 23.543 109.562 23.1094L109.383 23.3477C109.277 23.4023 109.035 23.5234 108.57 23.6172 108.082 23.6953 107.648 23.7617 107.199 23.7617 107.137 23.7617 107.105 23.7305 107.105 23.6641L107.105 23C107.105 22.9258 107.137 22.9062 107.199 22.9062 107.664 22.8906 108.055 22.8867 108.379 22.8477 108.676 22.7773 108.93 22.7383 109.062 22.6445 109.176 22.5234 109.391 22.2539 109.648 21.7539L109.848 21.3906C109.898 21.2617 110.027 21.2109 110.191 21.2109ZM109.234 25.1641C109.09 25.3789 108.879 25.6367 108.574 25.9336 108.215 25.6367 107.988 25.4336 107.828 25.2461 108.016 25.0352 108.266 24.8125 108.551 24.4922 108.602 24.5508 108.844 24.7852 109.234 25.1641ZM110.926 25.0078C110.781 25.2031 110.566 25.4727 110.254 25.7695 109.91 25.5078 109.684 25.2812 109.516 25.082 109.676 24.9219 109.922 24.6797 110.234 24.3281 110.289 24.3789 110.531 24.6289 110.926 25.0078ZM109.395 26.0391 109.395 26.0391"/><path d="M107.297 23.7617C106.965 23.7617 106.73 23.7109 106.508 23.6055 106.281 23.4883 106.086 23.3633 105.914 23.1797 105.223 23.5586 104.473 23.7617 103.648 23.7617 103.18 23.7617 102.852 23.6992 102.625 23.5742 102.387 23.4453 102.281 23.2734 102.281 23.0508 102.254 22.7773 102.348 22.6133 102.48 22.457 102.641 22.5781 102.879 22.7266 103.117 22.7969 103.352 22.8594 103.652 22.9062 104.008 22.9062 104.473 22.8906 104.988 22.8281 105.555 22.6719 105.25 22.1719 105.027 21.6641 104.836 21.1406 104.629 20.5898 104.543 20.25 104.543 20.0391 104.527 19.6484 104.738 19.4297 105.133 19.2969 105.273 19.8477 105.426 20.332 105.547 20.7148 105.656 21.0781 105.789 21.4062 105.895 21.6445 105.973 21.8555 106.133 22.1133 106.285 22.3281 106.41 22.5234 106.594 22.6953 106.75 22.7812 106.891 22.8594 107.09 22.9062 107.297 22.9062 107.332 22.8906 107.398 22.9375 107.398 23L107.398 23.6641C107.363 23.7266 107.363 23.7617 107.297 23.7617ZM104.574 24.3398 104.574 24.3398M98.7812 26.0469C98.5781 26.0156 98.3594 25.9766 98.0508 25.8359 97.7227 25.6719 97.4961 25.5547 97.3164 25.418L97.4688 25.0469C97.8555 25.1016 98.2305 25.1719 98.5273 25.1719 99.0781 25.168 99.5664 25.0039 99.9648 24.6719 100.34 24.3359 100.664 23.8516 100.879 23.2148 100.754 22.9531 100.664 22.7383 100.539 22.5078 100.262 22.0391 100.086 21.6914 99.9688 21.4141 99.8242 21.1211 99.7891 20.9102 99.7891 20.7227 99.7578 20.5117 99.8477 20.3828 99.9609 20.2695 100.055 20.1523 100.234 20.0469 100.441 19.9414 100.48 20.1172 100.57 20.375 100.664 20.625 100.738 20.8516 100.855 21.1289 100.949 21.3906 101.027 21.6406 101.125 21.9062 101.195 22.1602 101.23 22.4141 101.297 22.6445 101.297 22.8555 101.266 23.4062 101.188 23.9766 100.969 24.4727 100.727 24.9688 100.445 25.3594 100.059 25.6328 99.6562 25.8828 99.25 26.0469 98.7812 26.0469ZM98.8164 26.5938 98.8164 26.5938M94.5625 26.0352C94.3008 26.0117 94.0156 25.9609 93.6406 25.8086 93.2578 25.6406 92.9844 25.4922 92.7812 25.3203L92.9414 24.9531C93.3281 25.0586 93.7969 25.1602 94.3047 25.1602 94.8633 25.1602 95.3438 24.9961 95.7461 24.6641 96.1328 24.3359 96.4492 23.8516 96.6562 23.2148L96.6445 23.1172 96.6211 23.1367C96.4141 23.3047 96.1914 23.4805 95.9375 23.5938 95.668 23.6953 95.4141 23.7617 95.1406 23.7617 94.6953 23.7617 94.3711 23.6289 94.1211 23.3633 93.8633 23.0977 93.7461 22.75 93.7461 22.3164 93.7305 21.918 93.8203 21.5625 93.9766 21.1914 94.1016 20.8086 94.3281 20.5195 94.5781 20.293 94.7969 20.0547 95.0742 19.9531 95.3281 19.9531 95.6055 19.9219 95.8906 20.082 96.1562 20.3438 96.4023 20.5742 96.6406 20.9688 96.8125 21.4453 96.9844 21.8906 97.0781 22.3906 97.0781 22.8555 97.0508 23.3555 96.957 23.9062 96.7188 24.4141 96.4766 24.9062 96.1719 25.3242 95.7891 25.6094 95.3789 25.875 95 26.0352 94.5625 26.0352ZM95.1523 20.9062C94.9805 20.8906 94.8438 20.9648 94.6953 21.0781 94.5117 21.1875 94.418 21.3398 94.3203 21.5156 94.2148 21.6758 94.1719 21.8555 94.1719 22.0039 94.1484 22.2578 94.2773 22.4805 94.4922 22.6289 94.6797 22.75 95.0156 22.8477 95.4062 22.8477 95.5898 22.8164 95.7656 22.832 95.918 22.8008 96.0664 22.7578 96.2812 22.6992 96.5469 22.5898 96.4023 22.0898 96.2227 21.6992 95.9609 21.3828 95.6797 21.0586 95.4297 20.9062 95.1523 20.9062ZM95.2109 17.3398 95.2109 17.3398M85.3008 23.7617C85.2383 23.7617 85.207 23.7305 85.207 23.6641L85.207 23C85.2031 22.9258 85.2383 22.9062 85.3008 22.9062 86.3984 22.8906 87.2617 22.8125 87.8867 22.6211L88.5117 22.4062C88.9297 22.2305 89.3086 22.1406 89.6367 22.0781 89.332 21.9297 89.0586 21.75 88.7734 21.5234 88.4453 21.2656 88.2266 21.1211 88.0391 21.0273 87.8359 20.9102 87.6562 20.8867 87.4609 20.8867 87.082 20.8789 86.7812 20.9805 86.5 21.1602L86.2344 21.3242C86.1133 21.1953 86.0703 21.0703 86.0703 20.8867 86.0469 20.5977 86.1953 20.3828 86.4453 20.2109 86.6758 20.0234 87.0195 19.9531 87.4219 19.9531 87.6523 19.9219 87.8984 20.0039 88.1406 20.1055 88.3711 20.1953 88.6641 20.3789 88.9844 20.6094 89.3477 20.8828 89.707 21.1133 89.9805 21.2578 90.2266 21.3672 90.5312 21.5039 90.8125 21.5664 91.0898 21.6289 91.5039 21.6602 92.0391 21.6602L91.6094 22.4844C91.375 22.4453 91.168 22.4375 90.9844 22.4258L90.9453 22.418 90.7148 22.4258C90.4492 22.4023 90.207 22.4648 89.9727 22.5391 89.7148 22.5898 89.3711 22.7812 88.875 23.0391 88.293 23.3008 87.8164 23.5195 87.3633 23.6133 86.8945 23.6953 86.2266 23.7617 85.3008 23.7617ZM89.5781 25.2109C89.3789 25.4453 89.1641 25.7344 88.8555 26.0312 88.5156 25.7578 88.2695 25.5352 88.0547 25.3008 88.3711 24.957 88.6484 24.6953 88.8359 24.4805 89.082 24.7539 89.3398 25.0039 89.5781 25.2109ZM88.8359 24.2031 88.8359 24.2031"/><path d="M84.293 21.2109C84.3633 21.1953 84.4844 21.2422 84.5664 21.3008 84.4062 21.6094 84.3125 21.8945 84.2109 22.1133 84.1055 22.3125 84.0469 22.4531 84.0234 22.4805 84.2695 22.6328 84.5117 22.7539 84.7266 22.8164 84.9336 22.8594 85.1797 22.9062 85.4336 22.9062 85.4844 22.8906 85.5273 22.9375 85.5273 23L85.5273 23.6641C85.5195 23.7266 85.4961 23.7617 85.4336 23.7617 84.7344 23.7617 84.1562 23.543 83.6641 23.1094L83.4844 23.3477C83.3789 23.4023 83.1367 23.5234 82.6719 23.6172 82.1836 23.6953 81.75 23.7617 81.3008 23.7617 81.2383 23.7617 81.207 23.7305 81.207 23.6641L81.207 23C81.2031 22.9258 81.2383 22.9062 81.3008 22.9062 81.7617 22.8906 82.1562 22.8867 82.4766 22.8477 82.7734 22.7773 83.0273 22.7383 83.1641 22.6445 83.2734 22.5234 83.4922 22.2539 83.75 21.7539L83.9453 21.3906C83.9961 21.2617 84.1289 21.2109 84.293 21.2109ZM83.3359 25.1641C83.1875 25.3789 82.9805 25.6367 82.6719 25.9336 82.3125 25.6367 82.0898 25.4336 81.9297 25.2461 82.1172 25.0352 82.3672 24.8125 82.6523 24.4922 82.6992 24.5508 82.9453 24.7852 83.3359 25.1641ZM85.0234 25.0078C84.8828 25.2031 84.6641 25.4727 84.3516 25.7695 84.0117 25.5078 83.7812 25.2812 83.6133 25.082 83.7773 24.9219 84.0234 24.6797 84.3359 24.3281 84.3906 24.3789 84.6328 24.6289 85.0234 25.0078ZM83.4922 26.0391 83.4922 26.0391"/><path d="M77.4883 26.6914C76.8203 26.6797 76.3555 26.5078 75.9961 26.1406 75.6055 25.7461 75.4609 25.2578 75.4609 24.5859 75.4414 24.3633 75.4727 24.168 75.5 23.9766 75.5273 23.7773 75.5898 23.5039 75.6797 23.1367L76.0898 23.2344C75.9766 23.5391 75.9648 23.8281 75.9648 24.0312 75.9414 24.5547 76.1016 25.0078 76.375 25.3086 76.6211 25.5977 77.0273 25.7695 77.5156 25.7695 78.0664 25.7656 78.625 25.6328 79.1719 25.3633 79.6992 25.0938 80.0938 24.7617 80.2773 24.3672 79.7617 23.2969 79.5469 22.5859 79.5469 22.2305 79.5312 22.0117 79.6016 21.8594 79.7109 21.7031 79.8164 21.5312 80.0078 21.3867 80.2773 21.2266 80.2852 21.4688 80.3984 21.9727 80.5352 22.6758L80.5391 22.7227C80.7734 22.8242 81.0586 22.9062 81.3555 22.9062 81.3984 22.8906 81.4492 22.9375 81.4492 23L81.4492 23.6641C81.4336 23.7266 81.418 23.7617 81.3555 23.7617 81.0859 23.7617 80.8789 23.7148 80.6797 23.6211L80.6953 23.9453C80.6641 24.375 80.5469 24.8438 80.2578 25.2617 79.9453 25.6836 79.5664 26.0273 79.0586 26.2891 78.5312 26.5469 78.0273 26.6914 77.4883 26.6914ZM78.3711 20.5234C78.1719 20.7539 77.9531 21.0508 77.6484 21.3438 77.3008 21.0547 77.0469 20.8398 76.8438 20.6172 77.2109 20.2148 77.4883 19.9609 77.625 19.7969 77.8555 20.043 78.1094 20.2969 78.3711 20.5234ZM77.625 19.5234 77.625 19.5234M334.148 23.8594C333.68 23.8594 333.352 23.7969 333.125 23.6758 332.887 23.5469 332.781 23.375 332.781 23.1484 332.754 22.8789 332.848 22.7109 332.98 22.5586 333.141 22.6797 333.379 22.8242 333.617 22.8984 333.852 22.957 334.152 23.0078 334.508 23.0078 335 22.9922 335.508 22.9297 336.027 22.7773 335.902 22.4375 335.754 22.1016 335.562 21.75L335.18 21.0508C335.039 20.8203 334.984 20.6875 334.941 20.5508 334.883 20.3867 334.871 20.2812 334.871 20.1406 334.848 19.75 335.07 19.5273 335.465 19.3984 335.555 19.6914 335.695 19.9922 335.824 20.2695 335.945 20.5391 336.07 20.8008 336.18 21.043 336.262 21.2578 336.379 21.5078 336.453 21.7148 336.508 21.9062 336.562 22.1133 336.562 22.2852 336.539 22.3867 336.527 22.5508 336.457 22.7578 336.371 22.9297 336.293 23.1836 336.168 23.4219 335.602 23.6953 334.953 23.8594 334.148 23.8594ZM335.57 18.0234C335.371 18.2539 335.156 18.5508 334.848 18.8438 334.5 18.5547 334.246 18.3398 334.043 18.1172 334.414 17.7148 334.688 17.4609 334.828 17.2969 335.055 17.543 335.312 17.7969 335.57 18.0234ZM334.828 17.0234 334.828 17.0234M329.281 26.1445C329.078 26.1172 328.859 26.0742 328.551 25.9336 328.223 25.7695 327.996 25.6562 327.816 25.5195L327.969 25.1445C328.355 25.1992 328.73 25.2695 329.027 25.2695 329.578 25.2656 330.066 25.1055 330.465 24.7695 330.84 24.4336 331.164 23.9492 331.379 23.3125 331.254 23.0547 331.164 22.8359 331.039 22.6055 330.762 22.1406 330.586 21.7891 330.469 21.5156 330.324 21.2227 330.289 21.0117 330.289 20.8242 330.258 20.6133 330.348 20.4844 330.461 20.3672 330.555 20.25 330.734 20.1445 330.941 20.043 330.98 20.2188 331.07 20.4727 331.164 20.7227 331.238 20.9531 331.355 21.2266 331.449 21.4883 331.527 21.7383 331.625 22.0078 331.695 22.2617 331.73 22.5117 331.797 22.7461 331.797 22.957 331.766 23.5039 331.688 24.0742 331.469 24.5742 331.227 25.0664 330.945 25.457 330.559 25.7344 330.156 25.9844 329.75 26.1445 329.281 26.1445ZM329.316 26.6914 329.316 26.6914M325.285 19.8242C325.258 19.6875 325.312 19.5977 325.371 19.4961 325.402 19.3828 325.5 19.3242 325.59 19.2891 325.895 19.3945 326.25 19.6016 326.57 19.8828 326.863 20.1523 327.156 20.4883 327.371 20.8672 327.566 21.2422 327.699 21.5859 327.699 21.8906 327.664 22.1016 327.609 22.418 327.438 22.8047 327.25 23.1758 327.094 23.4375 326.938 23.5469 326.609 23.7266 326.254 23.8594 325.832 23.8594 325.402 23.8594 325.078 23.7383 324.832 23.4922 324.574 23.2344 324.461 22.8984 324.461 22.4492 324.441 22.0703 324.551 21.7461 324.727 21.3945 324.895 21.0312 325.184 20.6875 325.566 20.3203 325.426 20.2305 325.371 20.1758 325.34 20.0859 325.289 19.9883 325.285 19.9102 325.285 19.8242ZM324.977 22.1211C324.949 22.3672 325.059 22.5938 325.23 22.7422 325.395 22.8633 325.645 22.9688 325.953 22.9688 326.137 22.9648 326.371 22.9141 326.609 22.8047 326.844 22.6797 327.023 22.582 327.145 22.4727 326.977 21.7305 326.57 21.0977 325.883 20.5625 325.578 20.8203 325.387 21.0938 325.219 21.375 325.051 21.6523 324.977 21.9062 324.977 22.1211ZM325.426 17.9648C325.281 18.1758 325.07 18.4336 324.766 18.7305 324.406 18.4375 324.18 18.2305 324.02 18.043 324.211 17.8359 324.457 17.6094 324.742 17.2891 324.816 17.3711 325.059 17.6055 325.426 17.9648ZM327.117 17.8047C326.973 18.0117 326.754 18.2812 326.445 18.5703 326.109 18.3164 325.879 18.0898 325.703 17.8789 325.781 17.8008 326.023 17.5547 326.426 17.125 326.504 17.1992 326.742 17.4453 327.117 17.8047ZM325.605 18.7305 325.605 18.7305M319.66 20.1289 319.66 20.8281C319.641 21.5273 319.637 22.5312 319.586 23.7656L319.07 23.8594C319 21.2422 318.922 19.0703 318.766 17.3398L318.758 17.1992C318.738 16.9492 318.816 16.7734 318.938 16.6328 319.043 16.4688 319.242 16.3984 319.496 16.3477 319.477 16.3633 319.52 16.4375 319.531 16.4766 319.531 16.5117 319.664 16.9141 319.898 17.6758L319.594 17.9336 319.602 17.9883C319.641 18.7812 319.66 19.5039 319.66 20.1289ZM319.371 24.4414 319.371 24.4414M315.488 23.8594C315.395 23.8594 315.391 23.8281 315.391 23.7656L315.391 23.0977C315.359 23.0234 315.422 23.0078 315.488 23.0078 315.91 22.9922 316.355 22.9062 316.73 22.7109 316.566 20.7109 316.391 18.8125 316.168 16.9688 316.359 16.7461 316.633 16.543 316.918 16.3477 316.949 17.1172 317.012 18.2031 317.098 19.5117 317.133 20.5898 317.207 21.5508 317.219 22.3516 317.211 22.4453 317.18 22.6484 317.105 22.8555 317.027 23.0352 316.938 23.2695 316.824 23.4727 316.68 23.7266 316.242 23.8594 315.488 23.8594ZM316.844 24.4414 316.844 24.4414"/><path d="M314.855 23.9375C315.012 23.9883 315.18 24.1289 315.301 24.2812 315.422 24.4297 315.484 24.5859 315.484 24.7305 315.457 24.8125 315.434 25.0234 315.332 25.293 315.219 25.5508 315.152 25.7305 315.102 25.7969 315.008 25.8867 314.871 25.9805 314.695 26.0469 314.488 26.0859 314.344 26.1445 314.16 26.1445 313.559 26.1172 313.105 25.9727 312.742 25.6289 312.359 25.2617 312.145 24.7969 312.043 24.1602L311.617 24.3398 311.496 23.8477 311.301 23.8594C311.238 23.8594 311.207 23.8281 311.207 23.7656L311.207 23.0977C311.203 23.0234 311.238 23.0078 311.301 23.0078L311.812 22.9883 312.031 22.9727C312.176 21.5781 312.887 20.3008 314.133 19.125L314.531 19.2344C314.547 19.5469 314.621 20.0117 314.73 20.5508 314.812 21.0234 314.871 21.4102 314.871 21.6211 314.848 21.9297 314.781 22.2422 314.594 22.4961 314.379 22.7383 314.199 22.9492 313.957 23.0898L314.203 23.0664C314.598 23.0234 315.074 23.0078 315.633 23.0078 315.703 22.9922 315.758 23.0469 315.758 23.1211L315.758 23.7383C315.738 23.793 315.715 23.8594 315.633 23.8594 315.336 23.8594 315.09 23.8867 314.855 23.9375ZM314.227 22.3555 314.133 21.793C313.98 21.0703 313.906 20.5664 313.883 20.2422 313.441 20.8008 313.18 21.332 313.008 21.7539 312.836 22.1445 312.738 22.5977 312.711 23.0195 312.973 22.9688 313.242 22.9141 313.508 22.8008 313.77 22.668 314.012 22.5352 314.227 22.3555ZM314.254 25.3594C314.363 25.3242 314.516 25.332 314.656 25.2773 314.781 25.2188 314.914 25.1562 314.996 25.0625 314.871 24.7383 314.68 24.457 314.336 24.2188 313.977 23.9609 313.613 23.8594 313.215 23.8594 313.148 23.8594 313.008 23.8828 312.777 23.9258 312.867 24.3867 313.078 24.7656 313.336 25.0039 313.578 25.2266 313.895 25.3594 314.254 25.3594ZM314.141 26.6914 314.141 26.6914"/><path d="M308.5 23.8594C308.438 23.8594 308.406 23.8281 308.406 23.7656L308.406 23.0977C308.402 23.0234 308.438 23.0078 308.5 23.0078 308.922 22.9922 309.332 22.9102 309.727 22.7148 309.617 21.9102 309.508 20.5117 309.371 18.4609L309.262 16.9688C309.465 16.7344 309.734 16.5312 310.016 16.3477 310.059 17.3398 310.102 18.9805 310.129 21.1758L310.168 22.7109C310.484 22.8906 310.895 23.0078 311.332 23.0078 311.387 22.9922 311.43 23.0391 311.43 23.0977L311.43 23.7656C311.422 23.8281 311.398 23.8594 311.332 23.8594 310.773 23.8594 310.359 23.7266 310.047 23.4609 309.758 23.6133 309.527 23.7188 309.309 23.7773 309.09 23.8281 308.82 23.8594 308.5 23.8594ZM309.387 15.8008 309.387 15.8008"/><path d="M307.492 21.3125C307.562 21.293 307.684 21.3398 307.766 21.3984 307.609 21.7109 307.512 21.9922 307.41 22.2148 307.305 22.4141 307.246 22.5547 307.223 22.5781 307.469 22.7344 307.711 22.8516 307.926 22.9141 308.133 22.957 308.379 23.0078 308.633 23.0078 308.684 22.9922 308.727 23.0391 308.727 23.0977L308.727 23.7656C308.719 23.8281 308.695 23.8594 308.633 23.8594 307.934 23.8594 307.355 23.6445 306.863 23.207L306.684 23.4492C306.578 23.5039 306.336 23.6211 305.871 23.7188 305.383 23.793 304.949 23.8594 304.5 23.8594 304.438 23.8594 304.406 23.8281 304.406 23.7656L304.406 23.0977C304.402 23.0234 304.438 23.0078 304.5 23.0078 304.965 22.9922 305.355 22.9883 305.68 22.9453 305.977 22.8789 306.23 22.8398 306.363 22.7422 306.477 22.6211 306.691 22.3516 306.949 21.8516L307.148 21.4922C307.195 21.3594 307.328 21.3125 307.492 21.3125ZM306.535 25.2656C306.387 25.4805 306.18 25.7344 305.871 26.0312 305.512 25.7383 305.289 25.5352 305.129 25.3477 305.316 25.1367 305.566 24.9141 305.852 24.5938 305.898 24.6523 306.145 24.8867 306.535 25.2656ZM308.227 25.1055C308.082 25.3047 307.863 25.5703 307.551 25.8672 307.211 25.6055 306.98 25.3789 306.812 25.1836 306.977 25.0234 307.223 24.7773 307.535 24.4297 307.59 24.4805 307.832 24.7266 308.227 25.1055ZM306.695 26.1406 306.695 26.1406"/><path d="M301.359 26.1367C301.102 26.1094 300.812 26.0586 300.441 25.9062 300.055 25.7422 299.785 25.5938 299.582 25.418L299.742 25.0508C300.129 25.1602 300.598 25.2617 301.102 25.2617 301.566 25.2617 301.977 25.1445 302.336 24.918 302.684 24.6719 302.996 24.332 303.242 23.8438 302.5 23.7891 301.965 23.7578 301.602 23.6562 301.238 23.5273 300.973 23.4023 300.801 23.1914 300.629 22.9648 300.547 22.6875 300.547 22.3203 300.531 21.9219 300.621 21.5664 300.773 21.1953 300.902 20.8125 301.129 20.5234 301.379 20.3008 301.598 20.0586 301.875 19.9609 302.129 19.9609 302.426 19.9609 302.719 20.0977 302.984 20.375 303.223 20.6484 303.465 21.0312 303.629 21.5156 303.785 21.9805 303.879 22.4805 303.879 22.957L303.879 23.0078 304.543 23.0078C304.59 22.9922 304.637 23.0391 304.637 23.0977L304.637 23.7656C304.625 23.8281 304.605 23.8594 304.543 23.8594L303.758 23.8594C303.629 24.2852 303.473 24.6797 303.227 25.0312 302.977 25.3633 302.703 25.6602 302.379 25.8516 302.027 26.0117 301.715 26.1367 301.359 26.1367ZM301.953 20.9102C301.781 20.8945 301.645 20.9727 301.488 21.0898 301.305 21.1992 301.211 21.3555 301.113 21.5312 301.016 21.6836 300.973 21.8633 300.973 22.0039 300.949 22.2539 301.074 22.4688 301.281 22.6016 301.465 22.7227 301.793 22.8398 302.191 22.9141 302.215 22.9062 302.301 22.9336 302.363 22.9414 302.406 22.9219 302.781 22.9688 303.422 22.9961 303.324 22.4023 303.145 21.918 302.859 21.5156 302.555 21.0938 302.273 20.9102 301.953 20.9102ZM302.016 17.8984 302.016 17.8984M295.523 26.8555C295.309 26.9883 295.066 27.1602 294.773 27.2773 294.746 26.6953 294.73 26.0039 294.66 25.1836 294.574 24.4219 294.562 23.9688 294.562 23.8047 294.539 23.6484 294.598 23.5039 294.672 23.3242 294.719 23.125 294.824 22.9609 294.914 22.7656 295.324 22.6367 295.75 22.543 296.18 22.4805 296.582 22.4102 297.152 22.3867 297.809 22.3867L297.574 22.0508C297.082 21.2383 296.703 20.8789 296.359 20.8789 296.164 20.8711 296.016 20.9453 295.852 21.0742 295.676 21.1992 295.516 21.4141 295.328 21.7109L294.961 21.5312C295.137 21.0039 295.395 20.6367 295.68 20.3633 295.934 20.0859 296.262 19.9492 296.574 19.9492 296.715 19.918 296.906 20.0078 297.066 20.1289 297.207 20.2227 297.406 20.4297 297.594 20.6836 297.809 21.0078 298.059 21.293 298.254 21.5156 298.43 21.7188 298.645 21.9219 298.844 22.0703L298.414 23.2148C297.621 23.1953 296.961 23.25 296.422 23.3203 295.875 23.3711 295.402 23.5 294.988 23.6406L295.062 24.1562 295.211 24.9492C295.352 25.6484 295.457 26.3125 295.523 26.8555ZM297.082 24.418 297.082 24.418M89.0625 293.93 89.0625 294.629C89.0391 295.328 89.0352 296.332 88.9844 297.566L88.4688 297.66C88.3984 295.043 88.3203 292.871 88.1641 291.141L88.1602 291C88.1406 290.75 88.2188 290.574 88.3359 290.434 88.4414 290.27 88.6406 290.195 88.8984 290.145 88.875 290.164 88.918 290.238 88.9297 290.277 88.9297 290.312 89.0625 290.715 89.2969 291.473L88.9961 291.73 89 291.785C89.0391 292.578 89.0625 293.305 89.0625 293.93ZM89.0703 299.078 89.0781 299.027C89.0547 298.973 89.0664 298.965 89.0391 298.934 89 298.879 88.9766 298.891 88.9375 298.891 88.8086 298.879 88.7148 298.934 88.6172 299.016 88.5156 299.078 88.4531 299.195 88.4141 299.309 88.5234 299.441 88.6953 299.531 88.9219 299.531 89.0781 299.508 89.2773 299.508 89.4961 299.461L89.4688 299.895C89.1211 299.965 88.8945 300.055 88.7188 300.125 88.5391 300.176 88.332 300.301 88.0859 300.434L88.0625 299.996 88.5 299.75C88.2305 299.66 88.0938 299.543 88.0938 299.301 88.0625 299.07 88.1836 298.883 88.3633 298.699 88.5195 298.5 88.7266 298.422 88.9219 298.422 89.2031 298.402 89.3516 298.559 89.3516 298.832 89.3359 298.906 89.3281 299.031 89.2812 299.137ZM88.9375 300.27 88.9375 300.27M84.8906 297.66C84.793 297.66 84.7891 297.629 84.7891 297.566L84.7891 296.898C84.7617 296.824 84.8242 296.809 84.8906 296.809 85.3125 296.793 85.7539 296.707 86.1328 296.512 85.9688 294.512 85.7891 292.613 85.5664 290.77 85.7617 290.547 86.0312 290.344 86.3164 290.145 86.3477 290.918 86.4141 292.004 86.4961 293.312 86.5352 294.387 86.6055 295.352 86.6172 296.152 86.6094 296.246 86.5781 296.445 86.5039 296.656 86.4297 296.836 86.3359 297.07 86.2227 297.27 86.082 297.527 85.6445 297.66 84.8906 297.66ZM86.2461 298.238 86.2461 298.238"/><path d="M85.0352 296.809C85.0898 296.793 85.1328 296.836 85.1328 296.898L85.1328 297.566C85.1211 297.625 85.1016 297.66 85.0352 297.66 84.6641 297.66 84.3359 297.594 84.0078 297.465 83.6758 297.332 83.3828 297.125 83.125 296.84 82.5586 297.359 81.4609 297.66 79.8008 297.66 79.7383 297.66 79.707 297.629 79.707 297.566L79.707 296.898C79.7031 296.824 79.7383 296.809 79.8008 296.809 80.7305 296.793 81.5234 296.711 82.1836 296.523 82.4453 296.422 82.7773 296.32 83.1016 296.152 82.9688 295.699 82.707 295.34 82.3242 294.973 81.9297 294.605 81.418 294.27 80.7617 293.953 80.418 293.766 80.1992 293.648 80.043 293.512 79.875 293.359 79.8125 293.211 79.8125 293.016 79.8086 292.855 79.8281 292.754 79.8633 292.652 79.8789 292.523 79.957 292.461 80.0352 292.383 80.1406 292.262 80.6055 292.02 81.3906 291.629 81.7344 291.43 82.043 291.324 82.2266 291.246 82.3398 291.164 82.8672 290.977 83.7891 290.598L84.4453 290.332C84.4844 290.359 84.5391 290.449 84.5703 290.527 84.5781 290.586 84.6172 290.688 84.6172 290.762L84.6133 290.855C84.5703 291.082 84.4141 291.301 84.1406 291.414L81.1016 292.66 80.3438 292.996C80.8672 293.117 81.3984 293.352 81.8984 293.664 82.3633 293.973 82.793 294.32 83.0859 294.707 83.3672 295.09 83.5508 295.477 83.5508 295.824 83.5352 295.961 83.5312 296.133 83.4844 296.27 83.9102 296.625 84.4531 296.809 85.0352 296.809ZM82.0195 298.238 82.0195 298.238"/><path d="M78.793 295.113C78.8633 295.094 78.9844 295.141 79.0664 295.199 78.9062 295.512 78.8125 295.793 78.7109 296.012 78.6055 296.215 78.5469 296.355 78.5234 296.379 78.7695 296.535 79.0117 296.652 79.2266 296.715 79.4336 296.758 79.6797 296.809 79.9336 296.809 79.9844 296.793 80.0273 296.836 80.0273 296.898L80.0273 297.566C80.0195 297.625 79.9961 297.66 79.9336 297.66 79.2344 297.66 78.6562 297.441 78.1641 297.008L77.9844 297.25C77.8789 297.305 77.6367 297.422 77.1719 297.52 76.6836 297.594 76.25 297.66 75.8008 297.66 75.7383 297.66 75.707 297.629 75.707 297.566L75.707 296.898C75.7031 296.824 75.7383 296.809 75.8008 296.809 76.2617 296.793 76.6562 296.789 76.9766 296.746 77.2734 296.68 77.5273 296.641 77.6641 296.543 77.7734 296.422 77.9922 296.152 78.25 295.652L78.4453 295.293C78.4961 295.16 78.6289 295.113 78.793 295.113ZM78.0273 293.762C77.8828 293.977 77.6719 294.234 77.3633 294.527 77.0078 294.234 76.7812 294.031 76.6211 293.844 76.8086 293.633 77.0586 293.41 77.3438 293.09 77.4141 293.172 77.6562 293.406 78.0273 293.762ZM79.7148 293.605C79.5703 293.812 79.3516 294.082 79.043 294.371 78.7109 294.117 78.4805 293.891 78.3047 293.68 78.3828 293.602 78.625 293.355 79.0273 292.926 79.1055 293 79.3438 293.246 79.7148 293.605ZM78.207 294.527 78.207 294.527"/><path d="M75.8672 297.66C75.4961 297.66 75.2148 297.57 74.9531 297.387 74.8086 298.156 74.5391 298.789 74.0859 299.25 73.6094 299.684 73.1016 299.945 72.4844 299.945 72.2773 299.918 72.0586 299.875 71.75 299.734 71.4219 299.57 71.1953 299.457 71.0156 299.316L71.1719 298.945C71.5547 299 71.9297 299.07 72.2266 299.07 72.7773 299.066 73.2656 298.902 73.6641 298.57 74.0391 298.234 74.3672 297.75 74.5781 297.113 74.4531 296.855 74.3672 296.637 74.2383 296.406 73.9648 295.938 73.7852 295.59 73.668 295.316 73.5273 295.023 73.4883 294.812 73.4883 294.625 73.4609 294.414 73.5469 294.281 73.6602 294.168 73.7578 294.051 73.9375 293.945 74.1406 293.844 74.1797 294.02 74.2695 294.273 74.3633 294.52 74.582 295.125 74.7617 295.598 74.8438 295.879 74.9102 296.152 74.9766 296.391 74.9922 296.582 75.2148 296.727 75.5352 296.809 75.8672 296.809 75.9062 296.793 75.9609 296.836 75.9609 296.898L75.9609 297.566C75.9414 297.625 75.9297 297.66 75.8672 297.66ZM72.5312 300.492 72.5312 300.492M68.2617 299.934C68 299.91 67.7148 299.859 67.3438 299.707 66.957 299.543 66.6836 299.395 66.4844 299.219L66.6406 298.852C67.0273 298.961 67.4961 299.059 68.0039 299.059 68.5625 299.059 69.0469 298.895 69.4453 298.566 69.832 298.234 70.1523 297.75 70.3555 297.113L70.3438 297.02 70.3203 297.035C70.1133 297.203 69.8945 297.383 69.6367 297.492 69.3672 297.594 69.1133 297.66 68.8398 297.66 68.3984 297.66 68.0703 297.527 67.8203 297.262 67.5625 296.996 67.4453 296.648 67.4453 296.215 67.4297 295.82 67.5234 295.461 67.6758 295.09 67.8047 294.707 68.0273 294.418 68.2773 294.191 68.5 293.957 68.7734 293.855 69.0273 293.855 69.3047 293.824 69.5898 293.984 69.8555 294.242 70.1016 294.473 70.3398 294.867 70.5156 295.344 70.6836 295.793 70.7773 296.289 70.7773 296.758 70.75 297.254 70.6562 297.805 70.4219 298.316 70.1758 298.809 69.875 299.223 69.4922 299.508 69.0781 299.777 68.6992 299.934 68.2617 299.934ZM68.8516 294.805C68.6797 294.789 68.5469 294.863 68.3945 294.977 68.2109 295.086 68.1172 295.238 68.0195 295.414 67.9141 295.574 67.8711 295.754 67.8711 295.902 67.8477 296.16 67.9805 296.383 68.1953 296.527 68.3789 296.652 68.7148 296.746 69.1094 296.746 69.293 296.719 69.4648 296.73 69.6172 296.699 69.7695 296.656 69.9844 296.598 70.2461 296.488 70.1016 295.992 69.9219 295.598 69.6602 295.281 69.3789 294.957 69.1289 294.805 68.8516 294.805ZM68.9102 291.238 68.9102 291.238M62.3906 300.59C61.7227 300.582 61.2539 300.406 60.8984 300.043 60.5078 299.648 60.3594 299.156 60.3594 298.488 60.3398 298.262 60.375 298.066 60.4023 297.875 60.4297 297.68 60.4883 297.406 60.5781 297.035L60.9883 297.137C60.875 297.438 60.8633 297.73 60.8633 297.934 60.8438 298.457 61 298.906 61.2734 299.211 61.5234 299.5 61.9297 299.668 62.418 299.668 62.9648 299.664 63.5234 299.531 64.0742 299.262 64.6016 298.992 64.9922 298.66 65.1797 298.27 64.6641 297.195 64.4453 296.484 64.4453 296.129 64.4297 295.914 64.5 295.762 64.6094 295.605 64.7148 295.434 64.9062 295.289 65.1797 295.129 65.1836 295.367 65.2969 295.875 65.4375 296.578 65.5273 297.105 65.5938 297.535 65.5938 297.848 65.5625 298.277 65.4492 298.746 65.1562 299.164 64.8438 299.582 64.4648 299.926 63.957 300.191 63.4336 300.449 62.9297 300.59 62.3906 300.59ZM63.2695 294.223C63.0703 294.453 62.8555 294.75 62.5469 295.043 62.1992 294.754 61.9492 294.539 61.7422 294.316 62.1133 293.914 62.3867 293.66 62.5273 293.496 62.7539 293.742 63.0117 294 63.2695 294.223ZM62.5273 293.223 62.5273 293.223M240.398 296.961C240.34 296.961 240.305 296.93 240.305 296.867L240.305 296.199C240.305 296.125 240.34 296.105 240.398 296.105 240.738 296.09 241.09 296.07 241.445 295.996 241.789 295.906 242.113 295.82 242.379 295.695 242.258 295.34 242.148 294.941 241.977 294.465 241.809 294.078 241.762 293.828 241.762 293.715 241.742 293.535 241.828 293.387 241.961 293.215 242.074 293.023 242.273 292.895 242.496 292.77 242.496 292.98 242.613 293.41 242.758 294.055 242.844 294.516 242.914 294.93 242.914 295.203 242.91 295.297 242.879 295.473 242.812 295.676 242.738 295.879 242.645 296.105 242.523 296.34 241.824 296.727 241.125 296.961 240.398 296.961ZM242.578 298.41C242.379 298.645 242.164 298.938 241.855 299.23 241.516 298.957 241.27 298.734 241.055 298.5 241.371 298.156 241.648 297.898 241.836 297.68 242.082 297.953 242.34 298.203 242.578 298.41ZM241.836 297.406 241.836 297.406"/><path d="M240.469 296.961C240.098 296.961 239.812 296.867 239.555 296.688 239.41 297.457 239.137 298.09 238.688 298.551 238.207 298.984 237.703 299.246 237.082 299.246 236.879 299.219 236.66 299.176 236.352 299.035 236.023 298.871 235.797 298.758 235.617 298.617L235.77 298.246C236.156 298.301 236.531 298.371 236.828 298.371 237.379 298.367 237.867 298.203 238.266 297.871 238.641 297.535 238.965 297.051 239.18 296.414 239.055 296.156 238.965 295.938 238.84 295.707 238.562 295.238 238.387 294.891 238.266 294.617 238.125 294.324 238.09 294.109 238.09 293.926 238.059 293.715 238.145 293.582 238.262 293.469 238.355 293.352 238.535 293.246 238.742 293.145 238.781 293.32 238.867 293.574 238.965 293.82 239.18 294.422 239.359 294.895 239.441 295.176 239.512 295.453 239.574 295.691 239.594 295.883 239.812 296.023 240.137 296.105 240.469 296.105 240.508 296.09 240.562 296.137 240.562 296.199L240.562 296.867C240.539 296.926 240.531 296.961 240.469 296.961ZM237.133 299.793 237.133 299.793M232.961 299.234C232.699 299.211 232.414 299.16 232.043 299.008 231.656 298.84 231.383 298.695 231.184 298.52L231.344 298.152C231.73 298.262 232.195 298.359 232.703 298.359 233.262 298.359 233.746 298.195 234.148 297.863 234.531 297.535 234.852 297.051 235.055 296.414L235.043 296.32 235.023 296.336C234.812 296.504 234.594 296.68 234.336 296.793 234.066 296.895 233.812 296.961 233.539 296.961 233.098 296.961 232.77 296.828 232.52 296.562 232.262 296.297 232.145 295.949 232.145 295.516 232.129 295.117 232.223 294.762 232.375 294.391 232.504 294.008 232.73 293.719 232.977 293.492 233.199 293.258 233.473 293.152 233.727 293.152 234.004 293.121 234.289 293.285 234.555 293.543 234.801 293.773 235.039 294.168 235.215 294.645 235.383 295.09 235.477 295.59 235.477 296.059 235.449 296.555 235.359 297.105 235.121 297.617 234.879 298.109 234.574 298.523 234.191 298.809 233.777 299.078 233.398 299.234 232.961 299.234ZM233.551 294.105C233.383 294.09 233.246 294.164 233.094 294.277 232.91 294.387 232.816 294.539 232.719 294.715 232.613 294.875 232.57 295.055 232.57 295.203 232.547 295.461 232.68 295.68 232.895 295.828 233.078 295.949 233.414 296.047 233.809 296.047 233.992 296.016 234.164 296.031 234.32 296 234.469 295.957 234.684 295.898 234.945 295.789 234.805 295.293 234.621 294.898 234.359 294.582 234.078 294.258 233.828 294.105 233.551 294.105ZM233.609 290.539 233.609 290.539M227.699 296.961C227.637 296.961 227.605 296.93 227.605 296.867L227.605 296.199C227.605 296.125 227.637 296.105 227.699 296.105 228.039 296.09 228.387 296.07 228.746 295.996 229.09 295.906 229.414 295.82 229.68 295.695 229.559 295.34 229.449 294.941 229.273 294.465 229.109 294.078 229.062 293.828 229.062 293.715 229.039 293.535 229.129 293.387 229.262 293.215 229.375 293.023 229.57 292.895 229.797 292.77 229.797 292.98 229.914 293.41 230.059 294.055 230.145 294.516 230.215 294.93 230.215 295.203 230.211 295.297 230.18 295.473 230.109 295.676 230.039 295.879 229.945 296.105 229.82 296.34 229.125 296.727 228.426 296.961 227.699 296.961ZM229.027 291.465C228.883 291.676 228.672 291.934 228.363 292.23 228.008 291.938 227.781 291.73 227.621 291.543 227.809 291.336 228.059 291.109 228.344 290.789 228.414 290.871 228.656 291.105 229.027 291.465ZM230.715 291.305C230.57 291.512 230.352 291.781 230.043 292.07 229.711 291.816 229.48 291.59 229.305 291.379 229.383 291.301 229.625 291.055 230.027 290.625 230.105 290.699 230.344 290.945 230.715 291.305ZM229.207 292.23 229.207 292.23"/><path d="M224.562 299.234C224.301 299.211 224.016 299.16 223.641 299.008 223.258 298.84 222.984 298.695 222.781 298.52L222.941 298.152C223.328 298.262 223.797 298.359 224.305 298.359 224.766 298.359 225.176 298.246 225.535 298.02 225.883 297.77 226.195 297.434 226.441 296.941 225.699 296.891 225.164 296.855 224.805 296.758 224.438 296.625 224.172 296.504 224.004 296.289 223.828 296.066 223.746 295.789 223.746 295.422 223.73 295.023 223.82 294.668 223.977 294.297 224.102 293.914 224.328 293.625 224.578 293.398 224.801 293.16 225.074 293.059 225.328 293.059 225.625 293.059 225.918 293.199 226.184 293.477 226.422 293.746 226.664 294.133 226.828 294.617 226.984 295.082 227.078 295.578 227.078 296.059L227.078 296.105 227.742 296.105C227.789 296.09 227.836 296.137 227.836 296.199L227.836 296.867C227.824 296.926 227.805 296.961 227.742 296.961L226.957 296.961C226.828 297.387 226.672 297.777 226.43 298.133 226.176 298.465 225.902 298.762 225.578 298.949 225.227 299.109 224.914 299.234 224.562 299.234ZM225.152 294.012C224.98 293.996 224.844 294.07 224.688 294.191 224.504 294.297 224.41 294.457 224.312 294.629 224.215 294.781 224.172 294.965 224.172 295.105 224.148 295.352 224.273 295.566 224.484 295.703 224.664 295.824 224.992 295.941 225.391 296.012 225.414 296.008 225.5 296.035 225.562 296.043 225.605 296.023 225.98 296.066 226.621 296.098 226.523 295.5 226.344 295.02 226.059 294.617 225.754 294.195 225.473 294.012 225.152 294.012ZM225.219 291 225.219 291M218.688 299.891C218.023 299.879 217.555 299.707 217.195 299.34 216.809 298.949 216.66 298.457 216.66 297.785 216.641 297.562 216.676 297.367 216.703 297.176 216.727 296.98 216.789 296.703 216.879 296.336L217.289 296.434C217.176 296.738 217.164 297.027 217.164 297.234 217.145 297.754 217.301 298.207 217.574 298.512 217.824 298.797 218.23 298.969 218.719 298.969 219.266 298.965 219.824 298.832 220.371 298.562 220.898 298.293 221.293 297.961 221.477 297.566 220.965 296.496 220.746 295.785 220.746 295.43 220.73 295.211 220.801 295.059 220.91 294.902 221.016 294.73 221.207 294.586 221.477 294.426 221.484 294.668 221.598 295.172 221.734 295.879 221.828 296.406 221.895 296.836 221.895 297.145 221.863 297.578 221.746 298.043 221.457 298.465 221.145 298.883 220.766 299.227 220.258 299.492 219.73 299.746 219.23 299.891 218.688 299.891ZM219.57 293.523C219.371 293.754 219.156 294.051 218.848 294.344 218.5 294.055 218.246 293.84 218.043 293.617 218.414 293.215 218.688 292.961 218.828 292.797 219.055 293.043 219.312 293.297 219.57 293.523ZM218.828 292.523 218.828 292.523M399.602 296.961C399.539 296.961 399.508 296.93 399.508 296.867L399.508 296.199C399.504 296.125 399.539 296.105 399.602 296.105 399.938 296.09 400.289 296.07 400.645 295.996 400.988 295.906 401.312 295.82 401.578 295.695 401.457 295.34 401.352 294.941 401.176 294.465 401.008 294.078 400.965 293.828 400.965 293.715 400.941 293.535 401.027 293.387 401.16 293.215 401.273 293.023 401.473 292.895 401.695 292.77 401.695 292.98 401.816 293.41 401.957 294.055 402.043 294.516 402.117 294.93 402.117 295.203 402.109 295.297 402.078 295.473 402.012 295.676 401.938 295.879 401.848 296.105 401.723 296.34 401.027 296.727 400.324 296.961 399.602 296.961ZM401.871 291.324C401.672 291.555 401.453 291.852 401.148 292.145 400.801 291.855 400.547 291.641 400.344 291.418 400.715 291.016 400.988 290.762 401.129 290.598 401.355 290.844 401.609 291.098 401.871 291.324ZM401.129 290.324 401.129 290.324"/><path d="M398.594 294.41C398.664 294.395 398.785 294.441 398.867 294.5 398.707 294.809 398.609 295.094 398.508 295.312 398.402 295.516 398.344 295.656 398.324 295.68 398.566 295.836 398.809 295.953 399.027 296.016 399.234 296.059 399.48 296.105 399.734 296.105 399.785 296.09 399.828 296.137 399.828 296.199L399.828 296.867C399.82 296.926 399.797 296.961 399.734 296.961 399.035 296.961 398.453 296.742 397.965 296.309L397.781 296.551C397.68 296.605 397.434 296.723 396.969 296.816 396.48 296.895 396.051 296.961 395.602 296.961 395.539 296.961 395.508 296.93 395.508 296.867L395.508 296.199C395.504 296.125 395.539 296.105 395.602 296.105 396.062 296.09 396.457 296.086 396.777 296.047 397.074 295.977 397.328 295.938 397.465 295.844 397.574 295.723 397.789 295.453 398.051 294.953L398.246 294.59C398.297 294.461 398.426 294.41 398.594 294.41ZM397.633 298.367C397.488 298.578 397.281 298.836 396.973 299.133 396.613 298.84 396.391 298.633 396.23 298.449 396.414 298.234 396.668 298.012 396.953 297.691 397 297.75 397.246 297.988 397.633 298.367ZM399.324 298.207C399.18 298.402 398.965 298.672 398.652 298.969 398.309 298.707 398.082 298.48 397.914 298.285 398.078 298.121 398.32 297.879 398.637 297.527 398.688 297.578 398.93 297.828 399.324 298.207ZM397.793 299.242 397.793 299.242"/><path d="M392.461 299.234C392.199 299.211 391.914 299.16 391.543 299.008 391.156 298.84 390.883 298.695 390.684 298.52L390.844 298.152C391.23 298.262 391.695 298.359 392.203 298.359 392.664 298.359 393.078 298.246 393.438 298.02 393.781 297.77 394.098 297.434 394.344 296.941 393.598 296.891 393.066 296.855 392.703 296.758 392.34 296.625 392.074 296.504 391.902 296.289 391.73 296.066 391.645 295.789 391.645 295.422 391.629 295.023 391.723 294.668 391.875 294.297 392.004 293.914 392.23 293.625 392.477 293.398 392.699 293.16 392.973 293.059 393.227 293.059 393.523 293.059 393.82 293.199 394.086 293.477 394.324 293.746 394.566 294.133 394.73 294.617 394.883 295.082 394.977 295.578 394.977 296.059L394.977 296.105 395.645 296.105C395.691 296.09 395.734 296.137 395.734 296.199L395.734 296.867C395.723 296.926 395.703 296.961 395.645 296.961L394.855 296.961C394.727 297.387 394.57 297.777 394.328 298.133 394.074 298.465 393.801 298.762 393.477 298.949 393.129 299.109 392.812 299.234 392.461 299.234ZM393.051 294.012C392.883 293.996 392.742 294.07 392.59 294.191 392.402 294.297 392.309 294.457 392.215 294.629 392.113 294.781 392.07 294.965 392.07 295.105 392.047 295.352 392.176 295.566 392.383 295.703 392.562 295.824 392.895 295.941 393.293 296.012 393.312 296.008 393.398 296.035 393.465 296.043 393.508 296.023 393.879 296.066 394.523 296.098 394.426 295.5 394.242 295.02 393.961 294.617 393.656 294.195 393.371 294.012 393.051 294.012ZM393.117 291 393.117 291M387.199 296.961C387.137 296.961 387.105 296.93 387.105 296.867L387.105 296.199C387.105 296.125 387.137 296.105 387.199 296.105 387.539 296.09 387.887 296.07 388.246 295.996 388.59 295.906 388.914 295.82 389.18 295.695 389.059 295.34 388.949 294.941 388.773 294.465 388.609 294.078 388.562 293.828 388.562 293.715 388.539 293.535 388.629 293.387 388.762 293.215 388.875 293.023 389.07 292.895 389.297 292.77 389.297 292.98 389.414 293.41 389.559 294.055 389.645 294.516 389.715 294.93 389.715 295.203 389.711 295.297 389.68 295.473 389.609 295.676 389.539 295.879 389.445 296.105 389.32 296.34 388.625 296.727 387.926 296.961 387.199 296.961ZM388.527 291.465C388.383 291.676 388.172 291.934 387.863 292.23 387.508 291.938 387.281 291.73 387.121 291.543 387.309 291.336 387.559 291.109 387.844 290.789 387.914 290.871 388.156 291.105 388.527 291.465ZM390.215 291.305C390.07 291.512 389.852 291.781 389.543 292.07 389.211 291.816 388.98 291.59 388.805 291.379 388.883 291.301 389.125 291.055 389.527 290.625 389.605 290.699 389.844 290.945 390.215 291.305ZM388.707 292.23 388.707 292.23"/><path d="M387.27 296.961C386.895 296.961 386.613 296.867 386.355 296.688 386.211 297.457 385.938 298.09 385.488 298.551 385.008 298.984 384.504 299.246 383.883 299.246 383.676 299.219 383.461 299.176 383.148 299.035 382.824 298.871 382.594 298.758 382.418 298.617L382.57 298.246C382.953 298.301 383.328 298.371 383.629 298.371 384.18 298.367 384.668 298.203 385.062 297.871 385.441 297.535 385.766 297.051 385.977 296.414 385.852 296.156 385.766 295.938 385.641 295.707 385.363 295.238 385.188 294.891 385.066 294.617 384.926 294.324 384.891 294.109 384.891 293.926 384.859 293.715 384.945 293.582 385.062 293.469 385.156 293.352 385.336 293.246 385.539 293.145 385.582 293.32 385.668 293.574 385.766 293.82 385.98 294.422 386.16 294.895 386.242 295.176 386.309 295.453 386.375 295.691 386.395 295.883 386.613 296.023 386.938 296.105 387.27 296.105 387.309 296.09 387.359 296.137 387.359 296.199L387.359 296.867C387.34 296.926 387.328 296.961 387.27 296.961ZM383.934 299.793 383.934 299.793M379.762 299.234C379.5 299.211 379.215 299.16 378.844 299.008 378.457 298.84 378.184 298.695 377.984 298.52L378.141 298.152C378.527 298.262 378.996 298.359 379.504 298.359 380.062 298.359 380.547 298.195 380.945 297.863 381.332 297.535 381.648 297.051 381.855 296.414L381.844 296.32 381.82 296.336C381.613 296.504 381.395 296.68 381.137 296.793 380.867 296.895 380.613 296.961 380.34 296.961 379.898 296.961 379.57 296.828 379.32 296.562 379.062 296.297 378.945 295.949 378.945 295.516 378.93 295.117 379.023 294.762 379.176 294.391 379.305 294.008 379.527 293.719 379.777 293.492 380 293.258 380.273 293.152 380.527 293.152 380.805 293.121 381.09 293.285 381.355 293.543 381.602 293.773 381.84 294.168 382.016 294.645 382.184 295.09 382.277 295.59 382.277 296.059 382.25 296.555 382.156 297.105 381.922 297.617 381.676 298.109 381.375 298.523 380.992 298.809 380.578 299.078 380.199 299.234 379.762 299.234ZM380.352 294.105C380.18 294.09 380.047 294.164 379.895 294.277 379.711 294.387 379.617 294.539 379.52 294.715 379.414 294.875 379.371 295.055 379.371 295.203 379.348 295.461 379.48 295.68 379.695 295.828 379.879 295.949 380.215 296.047 380.609 296.047 380.789 296.016 380.965 296.031 381.117 296 381.27 295.957 381.484 295.898 381.746 295.789 381.602 295.293 381.422 294.898 381.16 294.582 380.879 294.258 380.629 294.105 380.352 294.105ZM380.41 290.539 380.41 290.539M373.789 299.891C373.121 299.879 372.652 299.707 372.297 299.34 371.906 298.949 371.762 298.457 371.762 297.785 371.742 297.562 371.773 297.367 371.801 297.176 371.828 296.98 371.887 296.703 371.98 296.336L372.391 296.434C372.277 296.738 372.266 297.027 372.266 297.234 372.242 297.754 372.398 298.207 372.672 298.512 372.922 298.797 373.328 298.969 373.816 298.969 374.367 298.965 374.922 298.832 375.473 298.562 376 298.293 376.395 297.961 376.578 297.566 376.062 296.496 375.844 295.785 375.844 295.43 375.828 295.211 375.898 295.059 376.008 294.902 376.117 294.73 376.309 294.586 376.578 294.426 376.586 294.668 376.695 295.172 376.836 295.879 376.93 296.406 376.992 296.836 376.992 297.145 376.965 297.578 376.848 298.043 376.555 298.465 376.246 298.883 375.863 299.227 375.359 299.492 374.832 299.746 374.328 299.891 373.789 299.891ZM374.672 293.523C374.473 293.754 374.254 294.051 373.949 294.344 373.602 294.055 373.348 293.84 373.145 293.617 373.512 293.215 373.789 292.961 373.926 292.797 374.152 293.043 374.41 293.297 374.672 293.523ZM373.926 292.523 373.926 292.523M106.742 136.25 106.742 135.492 103.816 135.492 103.816 132.535 103.016 132.535 103.016 135.492 100.094 135.492 100.094 136.25 103.016 136.25 103.016 139.207 103.816 139.207 103.816 136.25 106.742 136.25M334.141 133.848 334.141 133.09 331.219 133.09 331.219 130.137 330.414 130.137 330.414 133.09 327.492 133.09 327.492 133.848 330.414 133.848 330.414 136.809 331.219 136.809 331.219 133.848 334.141 133.848M315.141 149.348 315.141 148.59 312.219 148.59 312.219 145.637 311.414 145.637 311.414 148.59 308.492 148.59 308.492 149.348 311.414 149.348 311.414 152.309 312.219 152.309 312.219 149.348 315.141 149.348M197.242 293.348 197.242 292.59 194.316 292.59 194.316 289.637 193.516 289.637 193.516 292.59 190.594 292.59 190.594 293.348 193.516 293.348 193.516 296.309 194.316 296.309 194.316 293.348 197.242 293.348M36.9922 76.6484 43.6406 76.6484 43.6406 75.8906 36.9922 75.8906ZM36.9922 293.348 43.6406 293.348 43.6406 292.59 36.9922 292.59ZM262.094 207.551 268.742 207.551 268.742 206.793 262.094 206.793ZM369.191 71.8477 375.84 71.8477 375.84 71.0898 369.191 71.0898Z"/></svg>